<svg id="Grupo_7" data-name="Grupo 7" xmlns="http://www.w3.org/2000/svg" width="274.431" height="209.039" viewBox="0 0 274.431 209.039">
  <path id="Caminho_223" data-name="Caminho 223" d="M250.311,61H24.12A24.161,24.161,0,0,0,0,85.12v160.8a24.159,24.159,0,0,0,24.12,24.12H250.311a24.159,24.159,0,0,0,24.12-24.12V85.12A24.159,24.159,0,0,0,250.311,61ZM246.98,77.08,137.727,186.334,27.528,77.08ZM16.08,242.59V88.373l77.44,76.776Zm11.37,11.37,77.489-77.489,27.152,26.919a8.04,8.04,0,0,0,11.345-.025l26.475-26.475,77.07,77.07Zm230.9-11.37-77.07-77.07,77.07-77.07Z" transform="translate(0 -61)" fill="#4cb0e3"/>
</svg>
