<?xml version="1.0" encoding="UTF-8"?>
<!DOCTYPE svg PUBLIC "-//W3C//DTD SVG 1.1//EN" "http://www.w3.org/Graphics/SVG/1.1/DTD/svg11.dtd">
<!-- Creator: CorelDRAW 2018 (64 Bit) -->
<svg xmlns="http://www.w3.org/2000/svg" xml:space="preserve" width="200mm" height="200mm" version="1.1" style="shape-rendering:geometricPrecision; text-rendering:geometricPrecision; image-rendering:optimizeQuality; fill-rule:evenodd; clip-rule:evenodd"
viewBox="0 0 20000 20000"
 xmlns:xlink="http://www.w3.org/1999/xlink">
 <defs>
  <style type="text/css">
   <![CDATA[
    .fil1 {fill:#4CB0E3;fill-rule:nonzero}
    .fil0 {fill:#6B6B6B;fill-rule:nonzero}
   ]]>
  </style>
 </defs>
 <g id="Camada_x0020_1">
  <metadata id="CorelCorpID_0Corel-Layer"/>
  <g id="_1162213104912">
   <g id="_2412947555008">
    <path class="fil0" d="M11619.69 13221.68c-346.01,247.31 -702.56,423.83 -1030.9,522.37 -211.77,63.88 -411.85,96.67 -588.98,96.67 -177.44,0 -377.69,-32.79 -589.73,-96.67 -328.95,-98.54 -685.89,-275.06 -1032.1,-522.37 -649.35,-463.35 -1259.49,-1180.67 -1564.86,-2139.57 -179.25,-561.58 -229.48,-912.21 -230.06,-915.54l-41 -291.64 -258.76 68.42c-46.86,-6.32 -283.93,-61.74 -728.75,-528.35 -408.37,-428.08 -1018.34,-1857.02 -747.31,-2609.53 93.61,-260.02 280.71,-397.93 588.98,-434.73l230.5 -28.01 0 -45.19c144.9,173.27 275.89,620.32 452.67,1978.96l319.47 0 0 -3614.19c0,0 4664.23,641.06 6232.01,-1370.1 168.74,92.83 322.7,193.43 460.35,300.09 679.67,1541.22 594.87,4684.2 594.87,4684.2l383.61 0c0,0 136.28,-1472.81 346.87,-1927.71l187.2 21.95c308.18,36.8 495.28,174.71 588.97,434.73 270.86,751.92 -338.69,2181.09 -747.39,2609.53 -444.99,466.61 -682.14,522.03 -728.59,528.35l-255.42 -66.86 -43.81 286.83c-0.69,3.86 -60.29,387.36 -230.39,918.18 -307.43,958.9 -918.1,1676.83 -1567.45,2140.18zm-1619.88 2467.61c-1431.9,0 -1737.88,-973.69 -1799.62,-1291.89 37.4,-124.66 98.03,-336.44 154.49,-560.27 556.6,339.78 1137.64,525.7 1645.13,525.7 503.67,0 1080.27,-183.53 1633.98,-519.72 67.11,310.93 124.51,507.68 173.35,629.63 -85.32,260.63 -492.66,1216.55 -1807.33,1216.55zm5785.05 138.5c-1598,-863.08 -2716.59,-831.15 -3451.69,-1470.44 -72.16,-82.21 -170.96,-529.87 -232.2,-837.72 679.84,-539.61 1275.4,-1317.4 1583.33,-2278.77 110.08,-342.79 176.61,-626.55 213.07,-803.16 214.93,-61.74 519.89,-236.12 926.11,-662.42 496.83,-521.17 1218.52,-2152.22 860.78,-3146.66 -100.32,-278.63 -276.25,-486.49 -515.35,-618.77 636.36,-4529.98 -1682.29,-5800.68 -5169.1,-5800.68 -2679.54,0 -5523.2,785.99 -5035.18,5743.72 -306.57,124.16 -531.32,348.85 -649,676.08 -357.82,994.42 363.95,2625.4 860.79,3146.31 405.8,425.36 710.56,600.43 925.35,662.17 35.27,171.99 100.6,448.58 213.91,803.13 305.81,960.37 899.9,1737.99 1579.21,2277.18 -90.33,397.69 -228.25,839.59 -228.25,839.59 -735.1,639.29 -1853.61,607.36 -3451.88,1470.44 -1598.07,862.84 -2205.32,3963.04 -2205.32,3963.04l15981.12 0c0,0 -607.6,-3100.2 -2205.7,-3963.04z"/>
    <polygon class="fil1" points="15572.28,17082.11 15572.28,17082.11 15503.23,17030.64 15317.94,17094.53 15132.59,17030.64 14976.36,17147.98 14780.41,17144.27 14667.79,17305.75 14480.64,17362.41 14423.99,17550.34 14262.56,17662.31 14267.03,17857.15 14148.14,18015.2 14212.96,18199.65 14148.14,18384.02 14267.03,18541.81 14262.56,18736.93 14423.99,18848.61 14480.64,19036.9 14667.79,19093.54 14780.41,19254.98 14976.36,19251.45 15132.59,19368.31 15299.21,19311.66 15299.21,19311.66 15317.94,19304.45 15503.23,19368.31 15659.3,19251.45 15855.22,19254.98 15959.87,19104.09 15959.87,19104.09 15967.04,19093.54 16155,19036.9 16211.87,18848.61 16373.27,18736.93 16368.61,18541.81 16487.5,18384.02 16422.86,18199.65 16487.5,18015.2 16368.61,17857.15 16373.27,17662.31 16211.87,17550.34 16155,17362.41 15967.04,17305.75 15855.22,17144.27 15659.3,17147.98 "/>
    <path class="fil1" d="M15784.86 15827.79c-1561.53,-843.45 -2664.77,-833.88 -3400.29,-1429.69l-604.49 0c9.04,26.14 18.52,52.95 27.06,74.64 -85.32,260.63 -492.66,1216.55 -1807.33,1216.55 -1430.96,0 -1737.11,-972.5 -1799.27,-1291.19l-585.49 0c-735.24,595.81 -1838.48,586.24 -3400.29,1429.69 -1598.07,862.84 -2205.32,3963.04 -2205.32,3963.04l15981.12 0c0,0 -607.6,-3100.2 -2205.7,-3963.04z"/>
   </g>
  </g>
 </g>
</svg>
