<?xml version="1.0" encoding="UTF-8"?>
<!DOCTYPE svg PUBLIC "-//W3C//DTD SVG 1.1//EN" "http://www.w3.org/Graphics/SVG/1.1/DTD/svg11.dtd">
<!-- Creator: CorelDRAW 2018 (64 Bit) -->
<svg xmlns="http://www.w3.org/2000/svg" xml:space="preserve" width="200mm" height="200mm" version="1.1" style="shape-rendering:geometricPrecision; text-rendering:geometricPrecision; image-rendering:optimizeQuality; fill-rule:evenodd; clip-rule:evenodd"
viewBox="0 0 20000 20000"
 xmlns:xlink="http://www.w3.org/1999/xlink">
 <defs>
  <style type="text/css">
   <![CDATA[
    .fil9 {fill:#FEFEFE;fill-rule:nonzero}
    .fil3 {fill:#F7A594;fill-rule:nonzero}
    .fil5 {fill:#F48874;fill-rule:nonzero}
    .fil4 {fill:#F05962;fill-rule:nonzero}
    .fil29 {fill:#ED7362;fill-rule:nonzero}
    .fil0 {fill:#E4EBF7;fill-rule:nonzero}
    .fil18 {fill:#E4E8F0;fill-rule:nonzero}
    .fil8 {fill:#E8C589;fill-rule:nonzero}
    .fil20 {fill:#DE9455;fill-rule:nonzero}
    .fil14 {fill:#D8565C;fill-rule:nonzero}
    .fil7 {fill:#D5A858;fill-rule:nonzero}
    .fil19 {fill:#C7484F;fill-rule:nonzero}
    .fil23 {fill:#C78652;fill-rule:nonzero}
    .fil24 {fill:#C1784A;fill-rule:nonzero}
    .fil27 {fill:#B4B2C5;fill-rule:nonzero}
    .fil28 {fill:#B85F3E;fill-rule:nonzero}
    .fil1 {fill:#A4BCD2;fill-rule:nonzero}
    .fil21 {fill:#9E636F;fill-rule:nonzero}
    .fil12 {fill:#944857;fill-rule:nonzero}
    .fil25 {fill:#7C463A;fill-rule:nonzero}
    .fil22 {fill:#773B37;fill-rule:nonzero}
    .fil17 {fill:#7F83BE;fill-rule:nonzero}
    .fil16 {fill:#74394F;fill-rule:nonzero}
    .fil10 {fill:#697ABA;fill-rule:nonzero}
    .fil15 {fill:#4F3F49;fill-rule:nonzero}
    .fil6 {fill:#5B6FB3;fill-rule:nonzero}
    .fil11 {fill:#5B576B;fill-rule:nonzero}
    .fil26 {fill:#07B59B;fill-rule:nonzero}
    .fil13 {fill:#485EA1;fill-rule:nonzero}
    .fil2 {fill:#474158;fill-rule:nonzero}
   ]]>
  </style>
 </defs>
 <g id="Camada_x0020_1">
  <metadata id="CorelCorpID_0Corel-Layer"/>
  <g id="_2413061756624">
   <path class="fil0" d="M16254.01 14198.04l-12508.02 0c-445.55,-916.73 -695.71,-1946.06 -695.71,-3033.89 0,-3838.21 3111.51,-6949.67 6949.72,-6949.67 3838.22,0 6949.72,3111.46 6949.72,6949.67 0,1087.83 -250.16,2117.16 -695.71,3033.89z"/>
   <path class="fil1" d="M7622.96 15362.17c0,233.79 -947.67,423.34 -2116.67,423.34 -1169.03,0 -2116.68,-189.55 -2116.68,-423.34 0,-233.78 947.65,-423.33 2116.68,-423.33 1169,0 2116.67,189.55 2116.67,423.33z"/>
   <path class="fil1" d="M11150.69 15362.17c0,233.79 -947.63,423.34 -2116.62,423.34 -1169.04,0 -2116.67,-189.55 -2116.67,-423.34 0,-233.78 947.63,-423.33 2116.67,-423.33 1168.99,0 2116.62,189.55 2116.62,423.33z"/>
   <path class="fil1" d="M14219.85 15362.17c0,233.79 -947.63,423.34 -2116.66,423.34 -1169,0 -2116.63,-189.55 -2116.63,-423.34 0,-233.78 947.63,-423.33 2116.63,-423.33 1169.03,0 2116.66,189.55 2116.66,423.33z"/>
   <path class="fil1" d="M16759.85 15362.17c0,233.79 -947.66,423.34 -2116.66,423.34 -1169,0 -2116.67,-189.55 -2116.67,-423.34 0,-233.78 947.67,-423.33 2116.67,-423.33 1169,0 2116.66,189.55 2116.66,423.33z"/>
   <path class="fil2" d="M7824.32 7735.52c0,0 -328.82,393.31 -386.86,733 -57.99,339.69 -183.72,1323.02 -57.99,1501.81 125.69,178.78 270.79,178.78 309.45,178.78 38.67,0 1827.82,125.13 1818.15,-160.9 -9.67,-286.06 -183.76,-2172.23 -183.76,-2172.23 0,0 -773.68,-402.27 -1498.99,-80.46z"/>
   <path class="fil3" d="M9659.36 8173.53c0,0 208.42,1503.64 223.3,1726.95 14.89,223.3 -44.66,1250.55 -44.66,1250.55l-208.42 -14.89 -434.05 -2788.55 463.83 -174.06z"/>
   <path class="fil4" d="M9213.7 7593.88c-128.13,-31.3 -541.37,-90.74 -840.6,-94.09l0 -1.2c0,0 -3.1,0.18 -8.78,0.57 -5.65,-0.39 -8.79,-0.57 -8.79,-0.57l0 1.2c-110.98,8.36 -510.11,2.79 -637.71,215.51 -140.66,234.39 -212.52,2143.55 -212.52,2143.55l1775.68 0c0,0 -15.31,-2252.27 -67.28,-2264.97z"/>
   <path class="fil5" d="M7693.62 7647.15c0,0 -816.33,1125.57 -903.96,1403.2 -87.95,278.45 -115.75,361.14 89.85,460.63 226.48,109.57 364.95,-157.62 415.71,-348.3 81.32,-305.37 287.62,-786.77 300.5,-825.43 18.24,-54.65 97.9,-690.1 97.9,-690.1z"/>
   <polygon class="fil3" points="8904.6,13911.41 8915.82,14840.66 8958.68,14943.71 9228.69,15011.2 9209.11,13711.99 "/>
   <polygon class="fil3" points="8113.18,14046.98 8058.07,14845 7846.33,14809.48 7794.55,13999.36 "/>
   <path class="fil6" d="M7505.3 9858.85l289.85 4326.99 310.55 13.51 116.94 -3928.92 352.74 11.74c0,0 199.92,2340.08 188.18,2375.36 -11.79,35.28 130.07,1547.99 130.07,1547.99l353.55 -13.09 92.57 -1570.18 -58.77 -2763.4 -1775.68 0z"/>
   <path class="fil7" d="M9184.35 14866.73c0,0 -50.91,-117.79 15.91,-127.31 66.85,-9.57 101.85,31.82 101.85,31.82l159.17 184.6 82.75 133.67 -127.34 -60.43 -232.34 -162.35z"/>
   <path class="fil8" d="M8926.54 14806.23c0,0 51.96,130.71 108.23,108.23 31.82,-12.73 89.11,-117.75 130.49,-101.84 41.39,15.91 200.52,136.87 260.99,168.69 60.5,31.83 -124.14,-210.07 -124.14,-210.07 0,0 156,165.48 210.08,194.16 54.1,28.62 512.43,149.58 521.99,292.85l-7.9 92.28c0,0 -151.24,136.88 -504.53,15.91 -353.31,-120.97 -553.83,-143.23 -617.51,-168.7 -63.64,-25.47 -28.64,-388.3 22.3,-391.51z"/>
   <path class="fil9" d="M9594.94 15318.71c-168.69,-28.64 -448.8,-152.79 -556.99,-165.52 -62.37,-7.34 -124.57,-29.46 -166.23,-46.89 3.81,47.7 13.93,84 32.52,91.44 63.68,25.47 264.2,47.73 617.51,168.7 353.29,120.97 504.53,-15.91 504.53,-15.91l7.9 -92.28c-41.38,73.2 -270.54,89.07 -439.24,60.46z"/>
   <path class="fil9" d="M9276.67 14960.75l-8.57 -2.19c-8.5,-4.73 -11.61,-15.45 -6.88,-23.99 1.73,-3.1 42.58,-75.99 98.71,-86.78 22.58,-4.55 45.01,1.87 64.77,18.03 7.55,6.13 8.64,17.25 2.47,24.8 -6.18,7.58 -17.25,8.67 -24.8,2.47 -11.68,-9.53 -23.39,-13.02 -35.74,-10.69 -33.09,6.35 -65.02,52.14 -74.54,69.25 -3.25,5.82 -9.24,9.1 -15.42,9.1z"/>
   <path class="fil9" d="M9330.79 15011.65l-8.54 -2.18c-8.54,-4.73 -11.64,-15.45 -6.91,-23.99 1.72,-3.11 42.58,-75.99 98.7,-86.79 22.62,-4.55 45.05,1.84 64.77,18.03 7.55,6.17 8.65,17.25 2.47,24.8 -6.14,7.59 -17.25,8.64 -24.8,2.47 -11.67,-9.52 -23.39,-13.02 -35.7,-10.65 -33.12,6.31 -65.05,52.1 -74.58,69.25 -3.24,5.82 -9.2,9.06 -15.41,9.06z"/>
   <path class="fil9" d="M9397.57 15046.72l-8.5 -2.22c-8.51,-4.73 -11.61,-15.42 -6.88,-23.99 1.73,-3.07 42.58,-75.99 98.7,-86.78 22.51,-4.49 45.02,1.86 64.76,18.02 7.52,6.18 8.65,17.25 2.47,24.8 -6.17,7.59 -17.27,8.65 -24.79,2.51 -11.71,-9.56 -23.42,-13.06 -35.73,-10.69 -33.09,6.35 -65.05,52.1 -74.54,69.25 -3.25,5.82 -9.25,9.1 -15.49,9.1z"/>
   <path class="fil9" d="M9467.63 15078.51l-8.54 -2.23c-8.5,-4.69 -11.6,-15.41 -6.88,-23.95 1.73,-3.11 42.58,-75.99 98.67,-86.78 22.57,-4.34 45.01,1.9 64.77,18.06 7.55,6.14 8.64,17.25 2.47,24.8 -6.18,7.58 -17.29,8.64 -24.81,2.47 -11.67,-9.56 -23.42,-13.02 -35.73,-10.69 -33.08,6.31 -64.97,52.14 -74.5,69.21 -3.24,5.82 -9.24,9.11 -15.45,9.11z"/>
   <path class="fil4" d="M7186.43 8279.71l422.03 527.55 406.96 -1266.12c0,0 -452.19,0 -550.16,158.25 -80.92,130.74 -238.79,347.14 -278.83,580.32z"/>
   <polygon class="fil10" points="8823.81,14008.04 9292.93,14009.24 9275.93,14213.42 8854.36,14210.74 "/>
   <polygon class="fil10" points="7722.86,14002.14 8198.69,14003.06 8181.68,14207.25 7753.38,14204.89 "/>
   <path class="fil11" d="M7509.43 9310.32c101.92,-70.84 276.79,-828.89 311.33,-948.09 72.67,-250.79 102.23,-558.03 99.76,-819.12 -88.97,-35.74 -187.89,-7.9 -277.39,26.57 -92.99,348.01 -264.12,1337.52 -252.37,1697.53 31.43,28.82 76.02,43.07 118.67,43.11z"/>
   <path class="fil3" d="M7806.22 8306.63c0,120.72 -97.86,218.61 -218.58,218.61 -120.75,0 -218.61,-97.89 -218.61,-218.61 0,-120.72 97.86,-218.62 218.61,-218.62 120.72,0 218.58,97.9 218.58,218.62z"/>
   <path class="fil3" d="M7429.25 8414.93l-622.27 701.11c0,0 -267.86,360.96 -6.31,489.9 188.17,92.75 342.05,-102.72 439.98,-222.63 17.25,-21.17 335.56,-849.7 335.56,-849.7l-146.96 -118.68z"/>
   <path class="fil3" d="M8811.43 7538.38c-125.38,-19.96 -276.69,-36.76 -438.33,-38.59l0 -1.2c0,0 -3.1,0.18 -8.78,0.57 -5.65,-0.39 -8.79,-0.57 -8.79,-0.57l0 1.2c-58.52,4.41 -197.13,5.26 -333.83,35.95 -4.97,71.96 385.62,502.78 385.62,502.78 0,0 387.1,-385.87 404.11,-500.14z"/>
   <path class="fil3" d="M8373.1 7083.87l0 0c-97.08,0 -175.79,78.7 -175.79,175.78l0 328.19c0,97.09 78.71,175.79 175.79,175.79 97.12,0 175.83,-78.7 175.83,-175.79l0 -328.19c0,-97.08 -78.71,-175.78 -175.83,-175.78z"/>
   <path class="fil5" d="M8373.1 6978.03l0 0c-97.08,0 -175.79,78.71 -175.79,175.79l0 225.6c55.71,16.69 114.66,25.93 175.79,25.93 61.17,0 120.12,-9.24 175.83,-25.93l0 -225.6c0,-97.08 -78.71,-175.79 -175.83,-175.79z"/>
   <path class="fil3" d="M8985.03 6696.06c0,337.96 -273.97,611.92 -611.93,611.92 -337.96,0 -611.89,-273.96 -611.89,-611.92 0,-337.96 273.93,-611.93 611.89,-611.93 337.96,0 611.93,273.97 611.93,611.93z"/>
   <path class="fil3" d="M7968.43 6731.3c0,101.63 -82.37,184.01 -184.01,184.01 -101.63,0 -184.01,-82.38 -184.01,-184.01 0,-101.64 82.38,-184.01 184.01,-184.01 101.64,0 184.01,82.37 184.01,184.01z"/>
   <path class="fil3" d="M9128.36 6731.3c0,101.63 -82.33,184.01 -183.97,184.01 -101.63,0 -184.01,-82.38 -184.01,-184.01 0,-101.64 82.38,-184.01 184.01,-184.01 101.64,0 183.97,82.37 183.97,184.01z"/>
   <path class="fil2" d="M8200.91 6756.95c0,24.94 -20.35,45.15 -45.51,45.15 -25.11,0 -45.47,-20.21 -45.47,-45.15 0,-24.95 20.36,-45.16 45.47,-45.16 25.16,0 45.51,20.21 45.51,45.16z"/>
   <path class="fil2" d="M8627.42 6756.95c0,24.94 -20.36,45.15 -45.47,45.15 -25.16,0 -45.51,-20.21 -45.51,-45.15 0,-24.95 20.35,-45.16 45.51,-45.16 25.11,0 45.47,20.21 45.47,45.16z"/>
   <path class="fil2" d="M8014.75 6634l-25.75 -24.09c90.98,-97.05 210.32,-74.51 215.4,-73.49l-6.88 34.61c-4.23,-0.88 -105.51,-19.44 -182.77,62.97z"/>
   <path class="fil2" d="M8716.92 6634c-77.22,-82.37 -178.47,-63.81 -182.74,-62.97l-6.88 -34.61c5.05,-1.02 124.43,-23.53 215.37,73.49l-25.75 24.09z"/>
   <path class="fil9" d="M7651.14 15462.29c0,0 -26.28,96.91 -12.13,150.32 14.18,53.34 69.35,149.47 203.27,153.64 133.91,4.16 308.36,12.7 297.92,-361.46l-489.06 57.5z"/>
   <path class="fil7" d="M7848.31 14865.18c11.89,-21.13 -25.96,-179.39 84.56,-173.99 110.53,5.43 123.16,58.17 115.01,136 -8.19,77.78 -59.24,395.35 -59.24,395.35l-154.94 14.12 14.61 -371.48z"/>
   <path class="fil8" d="M7825.13 14755.01c0,0 -47.13,273.44 -52.03,284.05 -4.91,10.59 -146.16,431.8 -125.77,498.09 14.68,47.77 97.19,116.1 273.79,109.47 135.89,-5.15 236.22,-129.37 216.08,-263.84 -17.85,-119.31 -40.29,-344.84 -40.11,-348.23 0.32,-6.53 -21.87,-283.63 -21.87,-283.63 0,0 -129.4,194.2 -139.74,433.21l-47.66 -2.54c0,0 11.89,-439.99 -62.69,-426.58z"/>
   <path class="fil9" d="M8032 14892.59c-4.58,0 -9.14,-1.73 -12.59,-5.26 -76.06,-77.47 -156.28,-11.53 -159.67,-8.67 -7.41,6.28 -18.52,5.36 -24.87,-2.08 -6.28,-7.45 -5.4,-18.49 2.01,-24.81 37.08,-31.67 128.23,-70.06 207.72,10.84 6.8,6.94 6.7,18.13 -0.25,24.94 -3.42,3.38 -7.9,5.04 -12.35,5.04z"/>
   <path class="fil9" d="M8020.39 14983.04c-4.58,0 -9.13,-1.76 -12.59,-5.25 -76.02,-77.47 -156.32,-11.54 -159.7,-8.72 -7.37,6.35 -18.49,5.4 -24.84,-2.01 -6.28,-7.44 -5.39,-18.52 2.01,-24.8 37.08,-31.71 128.17,-70.2 207.72,10.76 6.81,6.99 6.7,18.13 -0.25,24.94 -3.42,3.39 -7.9,5.08 -12.35,5.08z"/>
   <path class="fil9" d="M8008.79 15073.46c-4.59,0 -9.14,-1.73 -12.6,-5.26 -76.09,-77.43 -156.28,-11.5 -159.7,-8.64 -7.41,6.28 -18.48,5.36 -24.83,-2.08 -6.28,-7.44 -5.4,-18.49 1.97,-24.8 37.11,-31.68 128.2,-70.17 207.75,10.79 6.81,6.95 6.71,18.1 -0.24,24.95 -3.43,3.38 -7.91,5.04 -12.35,5.04z"/>
   <path class="fil9" d="M7997.18 15163.95c-4.58,0 -9.13,-1.77 -12.59,-5.29 -76.06,-77.4 -156.32,-11.5 -159.7,-8.65 -7.41,6.32 -18.49,5.37 -24.84,-2.04 -6.28,-7.45 -5.4,-18.52 1.98,-24.8 37.11,-31.72 128.19,-70.21 207.71,10.76 6.84,6.98 6.74,18.13 -0.21,24.94 -3.46,3.38 -7.9,5.08 -12.35,5.08z"/>
   <path class="fil4" d="M9731.36 8294.6l-422.02 527.54 -406.97 -1266.12c0,0 452.2,0 550.16,158.26 80.93,130.74 238.79,347.13 278.83,580.32z"/>
   <path class="fil11" d="M9251.17 9310.32c-101.89,-70.84 -276.79,-828.89 -311.33,-948.09 -72.64,-250.79 -102.2,-558.03 -99.77,-819.12 88.97,-35.74 187.89,-7.9 277.39,26.57 93,348.01 264.13,1337.52 252.42,1697.53 -31.47,28.82 -76.06,43.07 -118.71,43.11z"/>
   <path class="fil2" d="M8651.55 6262.95c-60.43,53.69 -187.5,59.87 -264.09,55.81 -58.03,-3.1 -115.92,-10.44 -173.11,-21.98 -51.36,-10.37 -103.11,-24.52 -147.95,-54.82 -69.29,-46.88 -116.38,-130.35 -134.16,-219.78 -17.75,-89.43 -7.38,-288.43 19.26,-374.97 186.97,194.17 414.33,150.07 596.09,240.21 38.31,19.01 76.69,50.38 85.33,96.84 23.6,-35.39 72.15,-11.72 107.04,8.25 75.6,43.32 153.14,92.85 198.5,174.06 25.58,45.76 39.23,99.24 44,153.18 9.87,111.58 1.09,252.02 -58.64,341.31 -24.9,-103.93 -38.31,-185.95 -78.35,-260.84 -40.04,-74.86 -116.87,-139.84 -193.92,-137.27z"/>
   <path class="fil2" d="M7815.5 6618.45c-32.07,-45.34 -65.09,-92.89 -75.46,-149.19 -10.12,-55.14 2.79,-112.15 19.51,-165.28 21.38,-67.77 49.14,-133.14 82.76,-194.59 19.05,-34.82 41.7,-70.06 75.32,-86.86 52.04,-25.96 116.7,2.58 136.67,61.81 18.76,55.77 -27.27,120.76 -51.33,168.35 -61.81,122.23 -146.41,231.66 -187.47,365.76z"/>
   <path class="fil12" d="M8170.71 6946.67c15.67,100.61 102.45,177.69 207.47,177.69 105.02,0 191.77,-77.08 207.47,-177.69l-414.94 0z"/>
   <path class="fil9" d="M8170.71 6946.67c3.78,24.17 11.75,46.95 22.97,67.66l286.24 0c26.99,0 48.9,-21.9 48.9,-48.93l0 -18.73 -358.11 0z"/>
   <path class="fil13" d="M7533.53 10280.2l3.95 -1.48c173.32,-63.89 282.47,-235.83 266.49,-419.87l-298.67 0 28.23 421.35z"/>
   <path class="fil13" d="M9280.98 9858.85l-367.85 0 68.51 212.33c27.1,84.03 76.7,158.96 143.16,217.1 56.73,49.63 124.28,106.64 168.21,137.09l-12.03 -566.52z"/>
   <path class="fil14" d="M9125.15 11219.61l5.79 767.33 7.09 20.53c34.85,100.51 170.85,115.29 226.48,24.62l11.79 -19.22 38.77 -805.4 -289.92 12.14z"/>
   <path class="fil14" d="M10098.53 11196.5l-683.46 10.97 -154.91 884.74 722.76 -73.56c89.82,-7.41 157.38,-85.02 152.26,-175.01l-36.65 -647.14z"/>
   <path class="fil9" d="M9159.97 11213.54l9.7 719.18c0,0 -3.06,77.5 70.49,79.02 73.59,1.51 61.49,-91.44 61.49,-91.44l22.36 -711.73 -164.04 4.97z"/>
   <path class="fil3" d="M9890.5 11269.25c0,120.72 -97.87,218.61 -218.62,218.61 -120.72,0 -218.61,-97.89 -218.61,-218.61 0,-120.69 97.89,-218.59 218.61,-218.59 120.75,0 218.62,97.9 218.62,218.59z"/>
   <path class="fil15" d="M5737.89 7815.39c-32.21,-42.69 -78.04,-72.54 -130,-85.24 -128.17,-31.32 -392.78,-85.9 -692.01,-89.25l0.03 -1.2c0,0 -3.13,0.18 -8.78,0.57 -5.68,-0.39 -8.82,-0.57 -8.82,-0.57l0.04 1.2c-111.02,8.36 -510.14,2.79 -637.78,215.51 -140.61,234.39 -212.46,2143.55 -212.46,2143.55l1775.64 0c0,0 -33.58,-860.85 -98.25,-1497.4 168.28,310.13 393.21,711.94 393.21,729.23 0,27.3 227.72,400.75 227.72,400.75 0,0 275.66,-19.72 408.41,-108.48 170.92,-114.26 -788,-1405.25 -1016.95,-1708.67z"/>
   <path class="fil16" d="M4235.65 7720.35c0,0 -142.47,441.96 -168.03,635.56 -25.57,193.61 -316.42,1599.95 -316.42,1599.95l105.83 0c0,0 283.64,-1545.16 301.9,-1614.55 18.26,-69.4 183.17,-555.03 183.17,-555.03l-106.45 -65.93z"/>
   <polygon class="fil14" points="4771.98,8413.7 4894.01,8305.01 5757.75,8190.74 5967.69,9415.87 5064.08,9527.49 "/>
   <path class="fil9" d="M4814.28 8435.25c0,0 71.75,-87.7 79.73,-87.7 7.97,0 834.49,-116.95 834.49,-116.95l196.68 1161.35 -106.33 85.05 -826.49 55.81 -178.08 -1097.56z"/>
   <polygon class="fil14" points="5856.46,9495.52 4945.3,9625.81 4771.98,8413.7 5683.14,8283.42 "/>
   <polygon class="fil17" points="4596.26,8608.39 4718.29,8499.7 5582.03,8385.4 5791.97,9610.57 4888.4,9722.15 "/>
   <path class="fil9" d="M4638.59 8629.91c0,0 71.73,-87.7 79.7,-87.7 7.97,0 834.49,-116.94 834.49,-116.94l196.68 1161.38 -106.33 85.02 -826.49 55.81 -178.05 -1097.57z"/>
   <polygon class="fil17" points="5680.74,9690.19 4769.58,9820.47 4596.26,8608.39 5507.42,8478.08 "/>
   <path class="fil3" d="M5007.78 9288.44c0,129.9 -105.31,235.2 -235.2,235.2 -129.87,0 -235.17,-105.3 -235.17,-235.2 0,-129.89 105.3,-235.16 235.17,-235.16 129.89,0 235.2,105.27 235.2,235.16z"/>
   <path class="fil15" d="M4236.38 7788.26c0,0 -868.22,1111.35 -955.88,1388.95 -87.95,278.45 -96.05,470.29 109.57,569.81 226.47,109.57 462.66,-206.48 513.44,-397.16 81.3,-305.4 222.13,-832.84 235.01,-871.5 18.23,-54.64 97.86,-690.1 97.86,-690.1z"/>
   <polygon class="fil3" points="5843.47,14427.52 5911.52,15057.09 6005.12,15201.7 6209.27,15116.61 6124.21,14725.27 6047.63,14350.94 "/>
   <polygon class="fil3" points="4761.82,14364.48 4781.4,14997.4 4708.69,15153.58 4494.73,15097.52 4524.91,14698.18 4549.01,14316.86 "/>
   <path class="fil4" d="M4048.11 9999.96l188.16 2728.13 270.45 1822.69 282.23 0 -11.78 -1881.46 164.64 -2257.78 105.83 11.74c0,0 482.14,2340.09 470.36,2375.36 -11.75,35.28 323.99,1926.63 323.99,1926.63l282.22 0 -29.98 -1961.9 -270.48 -2763.41 -1775.64 0z"/>
   <path class="fil2" d="M6152.65 14982.58c0,0 -50.94,-117.75 15.91,-127.28 66.85,-9.56 101.85,31.82 101.85,31.82l159.17 184.61 82.72 133.7 -127.31 -60.5 -232.34 -162.35z"/>
   <path class="fil11" d="M5894.84 14922.12c0,0 51.96,130.7 108.2,108.23 31.85,-12.73 89.14,-117.76 130.49,-101.85 41.38,15.91 200.52,136.88 261.02,168.67 60.46,31.85 -124.14,-210.05 -124.14,-210.05 0,0 155.96,165.53 210.07,194.17 54.12,28.65 512.45,149.58 522.01,292.81l-7.9 92.32c0,0 -151.24,136.88 -504.55,15.91 -353.3,-120.93 -553.82,-143.23 -617.5,-168.7 -63.64,-25.47 -28.64,-388.34 22.3,-391.51z"/>
   <path class="fil9" d="M6563.25 15434.6c-168.7,-28.68 -448.81,-152.79 -557,-165.52 -62.38,-7.34 -124.61,-29.46 -166.23,-46.89 3.81,47.66 13.93,84 32.52,91.44 63.68,25.47 264.2,47.77 617.47,168.7 353.34,120.93 504.58,-15.91 504.58,-15.91l7.9 -92.32c-41.38,73.2 -270.55,89.11 -439.24,60.5z"/>
   <path class="fil18" d="M6244.93 15076.64l-8.5 -2.19c-8.53,-4.73 -11.64,-15.45 -6.91,-23.99 1.69,-3.11 42.58,-75.99 98.67,-86.78 22.61,-4.48 45.05,1.83 64.77,18.02 7.55,6.18 8.68,17.25 2.51,24.8 -6.18,7.55 -17.29,8.68 -24.81,2.47 -11.71,-9.49 -23.38,-13.01 -35.8,-10.65 -33.23,6.38 -65.02,52.14 -74.47,69.21 -3.21,5.82 -9.25,9.11 -15.46,9.11z"/>
   <path class="fil18" d="M6299.05 15127.58l-8.5 -2.23c-8.54,-4.72 -11.64,-15.41 -6.92,-23.98 1.7,-3.07 42.58,-75.99 98.71,-86.79 22.54,-4.44 45.02,1.84 64.77,18.03 7.52,6.17 8.64,17.25 2.47,24.8 -6.14,7.55 -17.25,8.64 -24.8,2.5 -11.71,-9.56 -23.39,-13.05 -35.77,-10.69 -33.27,6.43 -65.09,52.15 -74.51,69.25 -3.21,5.83 -9.24,9.11 -15.45,9.11z"/>
   <path class="fil18" d="M6365.9 15162.57l-8.53 -2.22c-8.51,-4.69 -11.61,-15.42 -6.88,-23.95 1.69,-3.11 42.54,-76.03 98.67,-86.79 22.58,-4.34 45.05,1.87 64.8,18.03 7.52,6.17 8.65,17.32 2.44,24.8 -6.14,7.55 -17.25,8.71 -24.8,2.5 -11.68,-9.59 -23.36,-13.01 -35.74,-10.72 -33.09,6.35 -65.02,52.14 -74.51,69.25 -3.21,5.82 -9.24,9.1 -15.45,9.1z"/>
   <path class="fil18" d="M6435.93 15194.39l-8.54 -2.18c-8.5,-4.73 -11.6,-15.46 -6.88,-23.99 1.7,-3.11 42.55,-75.99 98.67,-86.79 22.58,-4.51 45.02,1.87 64.77,18.03 7.55,6.17 8.68,17.25 2.51,24.8 -6.17,7.55 -17.29,8.64 -24.84,2.47 -11.67,-9.49 -23.32,-13.02 -35.77,-10.69 -33.27,6.42 -65.05,52.18 -74.47,69.25 -3.25,5.82 -9.24,9.1 -15.45,9.1z"/>
   <path class="fil2" d="M4544.77 14953.23c0,0 50.93,-117.75 -15.92,-127.28 -66.83,-9.59 -101.85,31.82 -101.85,31.82l-159.15 184.61 -82.75 133.7 127.32 -60.5 232.35 -162.35z"/>
   <path class="fil11" d="M4802.57 14892.77c0,0 -51.97,130.7 -108.2,108.23 -31.83,-12.74 -89.12,-117.76 -130.5,-101.85 -41.37,15.91 -200.52,136.85 -261,168.67 -60.47,31.85 124.13,-210.05 124.13,-210.05 0,0 -155.97,165.53 -210.07,194.14 -54.1,28.68 -512.46,149.61 -522,292.84l7.9 92.32c0,0 151.25,136.84 504.55,15.87 353.31,-120.89 553.84,-143.19 617.48,-168.66 63.68,-25.47 28.65,-388.34 -22.29,-391.51z"/>
   <path class="fil9" d="M4134.18 15405.25c168.69,-28.68 448.8,-152.79 557.02,-165.56 62.33,-7.34 124.56,-29.42 166.22,-46.85 -3.81,47.66 -13.93,84 -32.56,91.44 -63.64,25.47 -264.17,47.77 -617.48,168.66 -353.3,120.97 -504.55,-15.91 -504.55,-15.91l-7.9 -92.28c41.38,73.2 270.55,89.11 439.25,60.5z"/>
   <path class="fil18" d="M4452.5 15047.28c-6.21,0 -12.24,-3.28 -15.45,-9.1 -9.53,-17.11 -41.44,-62.9 -74.54,-69.21 -12.4,-2.47 -24.05,1.13 -35.73,10.65 -7.57,6.21 -18.65,5.08 -24.82,-2.47 -6.16,-7.55 -5.05,-18.62 2.49,-24.8 19.75,-16.16 42.2,-22.54 64.77,-18.03 56.13,10.8 96.98,83.68 98.7,86.79 4.71,8.54 1.61,19.26 -6.89,23.99l-8.53 2.18z"/>
   <path class="fil18" d="M4398.39 15098.23c-6.2,0 -12.22,-3.29 -15.46,-9.11 -9.51,-17.14 -41.44,-62.9 -74.55,-69.25 -12.39,-2.43 -24.05,1.13 -35.72,10.69 -7.55,6.14 -18.64,5.05 -24.82,-2.5 -6.17,-7.55 -5.06,-18.63 2.5,-24.8 19.72,-16.16 42.12,-22.51 64.76,-18.03 56.12,10.8 96.99,83.72 98.7,86.78 4.73,8.58 1.63,19.27 -6.89,23.99l-8.52 2.23z"/>
   <path class="fil18" d="M4331.53 15133.22c-6.2,0 -12.22,-3.28 -15.45,-9.1 -9.51,-17.11 -41.42,-62.9 -74.54,-69.25 -12.36,-2.4 -24.04,1.16 -35.71,10.69 -7.56,6.17 -18.68,5.04 -24.82,-2.51 -6.18,-7.51 -5.06,-18.62 2.49,-24.8 19.73,-16.15 42.18,-22.43 64.77,-17.99 56.11,10.76 96.97,83.68 98.68,86.78 4.71,8.54 1.63,19.23 -6.89,23.96l-8.53 2.22z"/>
   <path class="fil18" d="M4261.51 15165.04c-6.2,0 -12.24,-3.28 -15.45,-9.1 -9.5,-17.11 -41.42,-62.9 -74.53,-69.25 -12.42,-2.43 -24.06,1.16 -35.74,10.69 -7.56,6.17 -18.64,5.04 -24.82,-2.47 -6.15,-7.55 -5.04,-18.63 2.51,-24.8 19.74,-16.16 42.18,-22.51 64.76,-18.03 56.13,10.8 96.98,83.68 98.69,86.79 4.72,8.53 1.61,19.26 -6.89,23.98l-8.53 2.19z"/>
   <polygon class="fil19" points="5796.73,14596.79 6166.72,14597.67 6149.72,14801.82 5827.28,14799.49 "/>
   <polygon class="fil19" points="4463.82,14508.7 4833.82,14509.58 4816.82,14713.77 4494.37,14711.44 "/>
   <path class="fil3" d="M4889.07 9249.99c0,0 1433.37,-127.85 1500.82,-9.03 131.02,231 111.37,336.94 -43.46,391.58 -154.87,54.65 -1557.55,-182.17 -1557.55,-182.17l100.19 -200.38z"/>
   <path class="fil20" d="M4178.66 8817.87c101.88,-70.83 150.36,-195.33 184.88,-314.53 72.65,-250.79 108.52,-512.2 106.1,-773.29 -88.98,-35.74 -194.22,-53.73 -283.7,-19.26 -92.99,348.01 -137.71,703.96 -125.98,1064.01 31.45,28.79 76.06,43.04 118.7,43.07z"/>
   <path class="fil3" d="M5281.85 7983.7c27.69,-33.2 55.35,-189.94 72.39,-304.2 -125.41,-19.97 -276.72,-36.76 -438.36,-38.6l0.03 -1.2c0,0 -3.13,0.18 -8.78,0.57 -5.68,-0.39 -8.82,-0.57 -8.82,-0.57l0.04 1.2c-58.53,4.41 -197.17,5.26 -333.86,35.95 -4.97,71.97 -9.46,218.19 30.27,271.14 53.55,71.41 642.5,89.26 687.09,35.71z"/>
   <polygon class="fil19" points="4941.81,10411.54 4529,10403.14 4777.17,12669.32 "/>
   <path class="fil3" d="M4915.91 7224.98l0 0c-97.11,0 -175.82,78.7 -175.82,175.79l0 328.18c0,97.09 78.71,175.79 175.82,175.79 97.09,0 175.79,-78.7 175.79,-175.79l0 -328.18c0,-97.09 -78.7,-175.79 -175.79,-175.79z"/>
   <path class="fil5" d="M4915.91 7154.42l0 0c-97.11,0 -175.82,78.71 -175.82,175.79l0 225.6c55.7,16.69 114.65,25.93 175.82,25.93 61.14,0 120.09,-9.24 175.79,-25.93l0 -225.6c0,-97.08 -78.7,-175.79 -175.79,-175.79z"/>
   <path class="fil21" d="M5327.99 6060.99c0,227.61 -184.5,412.11 -412.08,412.11 -227.61,0 -412.11,-184.5 -412.11,-412.11 0,-227.58 184.5,-412.08 412.11,-412.08 227.58,0 412.08,184.5 412.08,412.08z"/>
   <path class="fil4" d="M5527.84 6731.33c0,337.97 -273.96,611.93 -611.93,611.93 -337.97,0 -611.94,-273.96 -611.94,-611.93 0,-337.96 273.97,-611.92 611.94,-611.92 337.97,0 611.93,273.96 611.93,611.92z"/>
   <path class="fil3" d="M5527.84 6872.45c0,337.96 -273.96,611.92 -611.93,611.92 -337.97,0 -611.94,-273.96 -611.94,-611.92 0,-337.97 273.97,-611.93 611.94,-611.93 337.97,0 611.93,273.96 611.93,611.93z"/>
   <path class="fil3" d="M4511.21 6907.69c0,101.63 -82.38,184.01 -183.99,184.01 -101.62,0 -184,-82.38 -184,-184.01 0,-101.6 82.38,-184.01 184,-184.01 101.61,0 183.99,82.41 183.99,184.01z"/>
   <path class="fil3" d="M5671.18 6907.69c0,101.63 -82.38,184.01 -184.01,184.01 -101.6,0 -183.98,-82.38 -183.98,-184.01 0,-101.6 82.38,-184.01 183.98,-184.01 101.63,0 184.01,82.41 184.01,184.01z"/>
   <path class="fil21" d="M4311.42 6764c0,0 438.23,-525.6 952.83,-400.61 0,0 -302.47,-303.78 -611.4,-146.26 -374.94,191.13 -341.43,546.87 -341.43,546.87z"/>
   <path class="fil22" d="M4743.69 6862.78c0,24.94 -20.36,45.15 -45.47,45.15 -25.16,0 -45.5,-20.21 -45.5,-45.15 0,-24.94 20.34,-45.16 45.5,-45.16 25.11,0 45.47,20.22 45.47,45.16z"/>
   <path class="fil22" d="M5170.23 6862.78c0,24.94 -20.35,45.15 -45.51,45.15 -25.11,0 -45.47,-20.21 -45.47,-45.15 0,-24.94 20.36,-45.16 45.47,-45.16 25.16,0 45.51,20.22 45.51,45.16z"/>
   <path class="fil22" d="M4746.3 6646.56c-0.67,-0.1 -14.11,-2.79 -35.24,-2.79 -42.06,-0.03 -115.82,10.73 -176.05,74.97l19.31 18.1c53.48,-57.08 118.73,-66.54 156.74,-66.61 9.45,0 17.11,0.6 22.36,1.2l5.93 0.78 1.76 0.32 5.19 -25.97z"/>
   <path class="fil22" d="M5076.15 6672.53l1.76 -0.32c3.92,-0.6 14.11,-1.98 28.29,-1.98 38,0.07 103.26,9.53 156.74,66.61l19.3 -18.1c-60.22,-64.24 -133.99,-75 -176.04,-74.97 -21.13,0 -34.57,2.69 -35.24,2.79l5.19 25.97z"/>
   <path class="fil22" d="M5177.11 7089.83l-0.77 0.77c-9.04,8.89 -92.4,85.83 -216.89,85.62 -21.66,0 -44.63,-2.29 -68.76,-7.65l-5.75 25.82c26.07,5.79 50.98,8.29 74.51,8.29 144.85,-0.28 235.44,-93.34 236.61,-94.37l-18.95 -18.48z"/>
   <path class="fil20" d="M3255.13 10503.05c-44.97,98.49 -78.27,206.87 -63.1,314.08 17.29,122.2 96.42,228.67 192.73,305.78 55.43,44.42 120.7,81.99 191.69,83.96 91.79,2.51 176.65,-56.4 229.03,-131.76 193.85,-279.01 282.36,-827.97 65.07,-1120.09 -72.39,-97.33 -159.8,-150.78 -259.82,-60.61 -75.86,68.4 -122.1,205.24 -175.49,291.98 -63.7,103.51 -129.52,205.82 -180.11,316.66z"/>
   <path class="fil23" d="M3288.59 10998.63c92.27,-188.21 184.53,-376.38 276.79,-564.59 71.82,-146.54 154.92,-315.06 182.33,-475.95 83.63,-60.54 206.14,-47.91 289.22,13.37 83.07,61.31 130.05,162.12 146.5,264.04 16.44,101.92 5.58,206.13 -7.62,308.51 -34.39,267.33 -87.25,540.31 -232.61,767.32 -166.11,64.7 -355.11,55.11 -504.9,-41.48 -86.29,-55.64 -136.19,-169.44 -149.71,-271.22z"/>
   <path class="fil24" d="M3924.96 9872.64c-81.01,-63.99 -189.42,-102.05 -288.95,-74.68 -43.52,12 -82.84,35.56 -120.77,60.01 -109.38,70.48 -212.5,150.71 -307.72,239.38 -16.48,15.35 -33.64,32.6 -37.22,54.83 -2.7,16.82 2.84,33.72 8.91,49.63 22.99,60.04 54.59,116.81 93.56,167.96 19.5,25.57 41.82,50.55 71.23,63.6 31.17,13.83 67.07,12.74 100.58,6.25 92.7,-17.92 173.02,-73.59 250.23,-127.92 183.51,-129.04 494.89,-229.9 230.15,-439.06z"/>
   <path class="fil8" d="M3969.79 10183.75c-69.81,0 -126.59,56.8 -126.59,126.61 0,69.82 56.78,126.61 126.59,126.61 69.82,0 126.62,-56.79 126.62,-126.61 0,-69.81 -56.8,-126.61 -126.62,-126.61zm0 288.5c-89.25,0 -161.87,-72.6 -161.87,-161.89 0,-89.25 72.62,-161.89 161.87,-161.89 89.27,0 161.9,72.64 161.9,161.89 0,89.29 -72.63,161.89 -161.9,161.89z"/>
   <path class="fil16" d="M3305.76 10168.09c0,0 -80.92,140.97 -50.63,334.96l27.93 23.53c0,0 29.23,-305.01 67.58,-310.52l-44.88 -47.97z"/>
   <polygon class="fil25" points="4389.03,7702.64 4042.24,10264.53 3901.13,10246.9 4280.94,7694.77 "/>
   <path class="fil3" d="M4349.02 8468.31c0,120.75 -97.89,218.61 -218.59,218.61 -120.74,0 -218.61,-97.86 -218.61,-218.61 0,-120.72 97.87,-218.58 218.61,-218.58 120.7,0 218.59,97.86 218.59,218.58z"/>
   <path class="fil3" d="M3972.04 8556.04l-622.25 701.11c0,0 -232.95,286.39 35.45,400.37 268.4,113.98 233.21,33.16 331.12,-86.75 17.28,-21.16 402.65,-896.05 402.65,-896.05l-146.97 -118.68z"/>
   <path class="fil21" d="M5262.13 6434.68c43.32,91.41 104,173.29 164.29,254.5 11.71,15.73 23.6,31.71 39.23,43.57 14.07,10.72 30.9,17.78 48.4,20.24 5.89,-64.48 -35.03,-122.41 -65.97,-179.31 -22.97,-42.23 -41.59,-87.53 -72.74,-124.14 -27.34,-32.07 -62.97,-55.88 -99.38,-76.52 -18.31,-10.37 -28.75,-21.06 -33.62,1.41 -3.67,16.9 12.81,45.51 19.79,60.25z"/>
   <path class="fil21" d="M10889.91 7283.08c-51.61,71.3 -116.69,140.05 -127.95,227.33 -7.05,54.64 8.54,109.85 30.55,160.37 89.11,204.33 284.2,349.99 496.89,416.67 212.73,66.64 441.96,61.91 662.34,28.33 151.84,-23.11 309.77,-63.93 419.14,-171.74 36.51,-35.98 67.52,-81.59 70.2,-132.78 1.3,-24.87 -4.16,-49.64 -11.36,-73.49 -34.96,-115.95 -109.89,-215.51 -156,-327.48 -58.98,-143.26 -68.72,-301.1 -95.18,-453.74 -26.46,-152.68 -75.42,-310.83 -191.06,-413.92 -109.19,-97.33 -266.88,-130.77 -410.71,-104.42 -198.72,36.44 -385.41,179.07 -480.34,356.24 -85.44,159.49 -96.73,336.93 -206.52,488.63z"/>
   <path class="fil4" d="M10965.02 8027.33c0,0 -328.79,393.32 -386.82,733.01 -58.03,339.69 -183.73,1322.97 -58.03,1501.76 125.73,178.79 270.79,178.79 309.49,178.79 38.66,0 1827.81,125.16 1818.15,-160.9 -9.71,-286.06 -183.77,-2172.22 -183.77,-2172.22 0,0 -773.67,-402.28 -1499.02,-80.44z"/>
   <path class="fil8" d="M12685.66 8492.97c-90.63,-171.84 -173.81,-325.76 -223.77,-417.62 -31.11,-57.26 -84.35,-98.82 -147.53,-114.9 -168.73,-42.97 -513.47,-124.32 -717.9,-127.81 -278.41,-4.7 -576.65,75.67 -704.78,106.99 -51.93,12.74 -97.79,42.55 -130,85.27 -228.95,303.39 -1187.91,1594.38 -1016.95,1708.64 132.75,88.76 408.44,108.48 408.44,108.48 0,0 227.69,-373.45 227.69,-400.75 0,-17.25 224.93,-419.1 393.17,-729.23 -64.67,636.55 -93,1244.32 -93,1244.32l1740.4 0c0,0 2.89,-467.82 -50.66,-1078.02 13.02,48.3 38.95,109.04 71.08,175.82l243.81 -561.19z"/>
   <path class="fil3" d="M10733.21 10546.97c0,0 164.61,2057.89 223.41,2269.56 58.81,211.67 305.3,2063.04 305.3,2063.04 0,0 118.04,18.35 165.06,6.57 47.06,-11.75 152.9,-1681.55 35.28,-2081.39 -50.73,-172.58 -11.75,-2081.39 -11.75,-2081.39l270.48 -11.75 23.49 2010.83c0,0 -31.53,560.36 -23.49,705.56 23.49,423.33 188.13,1458.14 188.13,1458.14 0,0 152.86,47.06 164.65,-23.5 11.74,-70.56 152.85,-2057.89 152.85,-2057.89l152.86 -2610.56 -1505.16 70.56 -141.11 282.22z"/>
   <path class="fil3" d="M12669.47 8493c347.48,488.81 798.33,1321.72 658.7,1335.69 -332.07,33.16 -408.72,-37.4 -408.72,-37.4 0,0 -72.22,-256.82 -156.78,-381.53 -32.31,-47.59 -234.14,-295.41 -383.68,-568.53 154.3,-65.55 254.49,-265.29 290.48,-348.23z"/>
   <path class="fil15" d="M10680.96 9957.91l-258.41 1739.43c0,0 293.34,234.74 1310.33,234.74 1016.98,0 1134.32,-273.83 1134.32,-273.83l-445.88 -1700.34 -1740.36 0z"/>
   <path class="fil19" d="M11249.32 14802.88c0,0 47.88,-110.67 -14.95,-119.63 -62.8,-8.99 -95.71,29.92 -95.71,29.92l-149.54 173.49 -77.79 125.59 119.66 -56.83 218.33 -152.54z"/>
   <path class="fil4" d="M11491.58 14746.05c0,0 -48.86,122.83 -101.67,101.7 -29.92,-11.96 -83.75,-110.66 -122.63,-95.71 -38.91,14.96 -188.45,128.63 -245.25,158.51 -56.87,29.91 116.63,-197.38 116.63,-197.38 0,0 -146.58,155.54 -197.42,182.42 -50.83,26.92 -481.57,140.62 -490.53,275.17l7.4 86.74c0,0 142.17,128.66 474.17,14.96 332,-113.66 520.46,-134.58 580.25,-158.5 59.83,-23.95 26.95,-364.91 -20.95,-367.91z"/>
   <path class="fil9" d="M10863.49 15227.62c158.54,-26.91 421.75,-143.58 523.42,-155.57 58.59,-6.88 117.08,-27.62 156.21,-44.03 -3.57,44.81 -13.13,78.95 -30.59,85.94 -59.79,23.92 -248.25,44.84 -580.25,158.5 -332,113.7 -474.17,-14.96 -474.17,-14.96l-7.4 -86.74c38.91,68.79 254.24,83.75 412.78,56.86z"/>
   <path class="fil18" d="M11162.61 14891.25c-5.85,0 -11.5,-3.07 -14.53,-8.54 -8.93,-16.08 -38.95,-59.12 -70.03,-65.08 -11.64,-2.3 -22.61,1.09 -33.58,10.05 -7.13,5.82 -17.54,4.73 -23.32,-2.33 -5.82,-7.09 -4.73,-17.53 2.36,-23.32 18.52,-15.2 39.62,-21.2 60.82,-16.89 52.74,10.12 91.16,78.59 92.75,81.52 4.44,8.05 1.51,18.1 -6.46,22.54l-8.01 2.05z"/>
   <path class="fil18" d="M11111.78 14939.12c-5.82,0 -11.5,-3.1 -14.54,-8.53 -8.92,-16.09 -38.94,-59.13 -70.06,-65.09 -11.64,-2.33 -22.58,1.06 -33.58,10.02 -7.06,5.78 -17.5,4.76 -23.32,-2.33 -5.79,-7.09 -4.73,-17.5 2.33,-23.28 18.55,-15.21 39.61,-21.21 60.89,-16.97 52.74,10.16 91.15,78.67 92.74,81.59 4.45,8.01 1.52,18.07 -6.49,22.51l-7.97 2.08z"/>
   <path class="fil18" d="M11048.91 14971.97c-5.82,0 -11.46,-3.04 -14.5,-8.54 -8.96,-16.09 -38.91,-59.13 -70.02,-65.02 -11.65,-2.29 -22.62,1.06 -33.59,10.02 -7.09,5.79 -17.53,4.73 -23.32,-2.36 -5.78,-7.09 -4.72,-17.5 2.33,-23.29 18.56,-15.2 39.65,-21.09 60.89,-16.93 52.74,10.13 91.12,78.63 92.75,81.53 4.44,8.04 1.51,18.13 -6.5,22.54l-8.04 2.05z"/>
   <path class="fil18" d="M10983.12 15001.92c-5.82,0 -11.47,-3.11 -14.5,-8.54 -8.93,-16.09 -38.91,-59.13 -70.03,-65.09 -11.67,-2.29 -22.65,1.06 -33.58,10.02 -7.13,5.79 -17.57,4.73 -23.36,-2.33 -5.78,-7.05 -4.69,-17.49 2.37,-23.28 18.55,-15.21 39.65,-21.17 60.85,-16.97 52.78,10.16 91.12,78.67 92.75,81.6 4.44,8.01 1.51,18.1 -6.46,22.51l-8.04 2.08z"/>
   <path class="fil19" d="M12218.41 14802.24c-17.01,-32.27 -51.05,-52.35 -87.49,-50.05 -20.04,1.27 -41.7,4.3 -57.61,10.93 -38.67,16.12 -38.67,103.19 -25.79,119.31 12.91,16.12 183.87,299.97 183.87,299.97 0,0 167.71,-54.82 164.5,-77.4 -3.25,-22.58 -141.92,-225.78 -141.92,-225.78 0,0 -16.44,-40.6 -35.56,-76.98z"/>
   <path class="fil4" d="M11900.66 14845.14c0,0 -55.35,201.33 -36.02,304.56 0,0 -3.28,28.46 99.94,73.87 103.26,45.44 166.23,229.87 459.78,200.83 293.51,-29.03 261.26,-70.94 261.26,-70.94 0,0 35.18,-221.93 -240.06,-314.92 -134.16,-45.34 -202.71,-215.73 -202.71,-215.73 0,0 -48.75,-21.45 -39.05,20.46 9.67,41.91 165.49,230.61 165.49,230.61l-48.33 9.32c0,0 -130.53,-243.17 -185.39,-249.63 -54.85,-6.45 -129.01,74.19 -174.16,61.28 -45.16,-12.88 -60.75,-49.71 -60.75,-49.71z"/>
   <path class="fil9" d="M12424.36 15424.4c293.51,-29.03 261.26,-70.94 261.26,-70.94 0,0 5.08,-33.8 -4.62,-80.29 -30.2,21.94 -122.27,74.5 -313.58,75.95 -241.72,1.87 -247.3,-137.62 -351.44,-171.1 -70.98,-22.79 -126.58,-62.44 -155.26,-85.65 -0.28,20.78 0.78,40.43 3.92,57.33 0,0 -3.28,28.46 99.94,73.87 103.26,45.44 166.23,229.87 459.78,200.83z"/>
   <path class="fil9" d="M12131.27 14930.13c-4.55,0 -9.1,-1.56 -12.84,-4.7 -8.36,-7.09 -9.49,-19.61 -2.44,-28.01 2.01,-2.32 49.36,-57.99 104,-60.39 23.5,-0.71 45.23,7.87 62.97,25.68 7.8,7.76 7.8,20.36 0,28.15 -7.76,7.73 -20.35,7.73 -28.15,0 -9.91,-9.98 -21.69,-14.99 -32.98,-14.07 -30.84,1.27 -64.81,33.83 -75.32,46.28 -3.99,4.66 -9.63,7.06 -15.24,7.06z"/>
   <path class="fil9" d="M12172.16 14997.05c-4.55,0 -9.11,-1.55 -12.85,-4.66 -8.36,-7.12 -9.48,-19.61 -2.39,-28.01 1.97,-2.4 49.35,-58.03 104.03,-60.39 23.28,-0.71 45.09,7.86 62.9,25.64 7.8,7.76 7.8,20.36 0,28.12 -7.76,7.8 -20.35,7.8 -28.15,0 -9.88,-9.88 -20.25,-14.08 -32.99,-14.01 -30.76,1.27 -64.8,33.84 -75.35,46.25 -3.92,4.66 -9.59,7.06 -15.2,7.06z"/>
   <path class="fil9" d="M12231.7 15052.86c-4.51,0 -9.06,-1.52 -12.8,-4.62 -8.43,-7.13 -9.53,-19.65 -2.44,-28.05 1.98,-2.36 49.36,-58.03 103.97,-60.43 23.35,-0.71 45.15,7.87 62.97,25.65 7.73,7.76 7.73,20.35 0,28.11 -7.8,7.8 -20.43,7.8 -28.15,0 -9.99,-9.98 -21.35,-14.25 -33.06,-14 -31.04,1.37 -64.84,33.86 -75.28,46.25 -3.92,4.69 -9.53,7.09 -15.21,7.09z"/>
   <path class="fil9" d="M12281.91 15114.28c-4.56,0 -9.11,-1.56 -12.88,-4.73 -8.36,-7.06 -9.46,-19.58 -2.4,-27.98 2.01,-2.36 49.35,-58.06 104.03,-60.46 23.25,-0.67 45.12,7.9 62.9,25.68 7.8,7.76 7.8,20.36 0,28.12 -7.72,7.79 -20.35,7.79 -28.11,0 -9.95,-9.95 -20.89,-14.08 -32.95,-14.01 -30.83,1.27 -64.88,33.83 -75.39,46.25 -3.95,4.69 -9.6,7.13 -15.2,7.13z"/>
   <path class="fil2" d="M12391.9 9602.1c-101.92,-70.84 -276.79,-828.85 -311.33,-948.06 -72.67,-250.79 -102.23,-558.06 -99.8,-819.15 89.01,-35.7 187.93,-7.86 277.43,26.57 92.96,348.01 264.12,1337.52 252.38,1697.56 -31.47,28.79 -76.03,43.04 -118.68,43.08z"/>
   <polygon class="fil26" points="12059.58,8646.35 11937.56,8537.66 11073.82,8423.4 10863.88,9648.52 11767.48,9760.14 "/>
   <path class="fil9" d="M12017.29 8667.87c0,0 -71.76,-87.7 -79.73,-87.7 -7.97,0 -834.46,-116.94 -834.46,-116.94l-196.71 1161.38 106.33 85.05 826.52 55.81 178.05 -1097.6z"/>
   <polygon class="fil26" points="10975.15,9728.15 11886.3,9858.43 12059.58,8646.35 11148.43,8516.07 "/>
   <polygon class="fil4" points="12235.3,8841.02 12113.28,8732.33 11249.57,8618.06 11039.63,9843.22 11943.2,9954.84 "/>
   <path class="fil9" d="M12193.01 8862.57c0,0 -71.76,-87.74 -79.73,-87.74 -7.98,0 -834.5,-116.91 -834.5,-116.91l-196.64 1161.35 106.3 85.05 826.48 55.81 178.09 -1097.56z"/>
   <polygon class="fil4" points="11150.83,9922.84 12061.98,10053.13 12235.3,8841.02 11324.15,8710.74 "/>
   <path class="fil3" d="M11583.65 7434.46l0.04 0c97.08,0 175.75,78.7 175.75,175.78l0 328.19c0,97.09 -78.67,175.79 -175.75,175.79l-0.04 0c-97.08,0 -175.79,-78.7 -175.79,-175.79l0 -328.19c0,-97.08 78.71,-175.78 175.79,-175.78z"/>
   <path class="fil5" d="M11583.65 7363.9l0 0c97.12,0 175.79,78.7 175.79,175.79l0 225.6c-55.7,16.69 -114.65,25.93 -175.79,25.93 -61.13,0 -120.08,-9.24 -175.82,-25.93l0 -225.6c0,-97.09 78.74,-175.79 175.82,-175.79z"/>
   <path class="fil21" d="M10971.72 6940.81c0,337.96 274.01,611.93 611.93,611.93 337.96,0 611.93,-273.97 611.93,-611.93 0,-337.96 -273.97,-611.92 -611.93,-611.92 -337.92,0 -611.93,273.96 -611.93,611.92z"/>
   <path class="fil3" d="M10971.72 7081.92c0,337.97 274.01,611.93 611.93,611.93 337.96,0 611.93,-273.96 611.93,-611.93 0,-337.96 -273.97,-611.92 -611.93,-611.92 -337.92,0 -611.93,273.96 -611.93,611.92z"/>
   <path class="fil3" d="M11988.32 7117.17c0,101.63 82.41,184.01 184.01,184.01 101.64,0 184.01,-82.38 184.01,-184.01 0,-101.6 -82.37,-183.98 -184.01,-183.98 -101.6,0 -184.01,82.38 -184.01,183.98z"/>
   <path class="fil3" d="M10828.39 7117.17c0,101.63 82.37,184.01 183.97,184.01 101.64,0 184.01,-82.38 184.01,-184.01 0,-101.6 -82.37,-183.98 -184.01,-183.98 -101.6,0 -183.97,82.38 -183.97,183.98z"/>
   <path class="fil2" d="M11755.84 7072.26c0,24.94 20.39,45.15 45.51,45.15 25.12,0 45.51,-20.21 45.51,-45.15 0,-24.94 -20.39,-45.16 -45.51,-45.16 -25.12,0 -45.51,20.22 -45.51,45.16z"/>
   <path class="fil2" d="M11329.33 7072.26c0,24.94 20.4,45.15 45.51,45.15 25.12,0 45.51,-20.21 45.51,-45.15 0,-24.94 -20.39,-45.16 -45.51,-45.16 -25.11,0 -45.51,20.22 -45.51,45.16z"/>
   <path class="fil21" d="M11945.25 6946.32c-79.34,-84.6 -185.77,-64.56 -186.8,-64.31l-5.18 -25.97c4.94,-1.02 121.92,-23.07 211.28,72.18l-19.3 18.1z"/>
   <path class="fil21" d="M11236.62 6946.32l-19.29 -18.1c89.29,-95.22 206.34,-73.13 211.28,-72.18l-5.15 25.97c-4.27,-0.85 -107.85,-19.9 -186.84,64.31z"/>
   <path class="fil3" d="M11579.42 9127.37c55.21,107.38 187.01,149.64 294.36,94.4 107.35,-55.21 149.61,-187.01 94.4,-294.36 -55.21,-107.38 -187.01,-149.65 -294.39,-94.44 -107.35,55.25 -149.62,187.05 -94.37,294.4z"/>
   <path class="fil3" d="M10396.41 8523.48c-347.45,488.84 -769.93,1131.01 -651.68,1210.06 132.75,88.76 408.44,108.48 408.44,108.48 0,0 227.69,-373.45 227.69,-400.75 0,-14.4 156.49,-296.37 306.1,-569.53 -154.3,-65.54 -254.53,-265.29 -290.55,-348.26z"/>
   <path class="fil2" d="M10650.17 9602.1c101.88,-70.84 276.75,-828.85 311.32,-948.06 72.6,-250.79 102.2,-558.06 99.77,-819.15 -88.97,-35.7 -187.89,-7.86 -277.39,26.57 -92.99,348.01 -264.16,1337.52 -252.41,1697.56 31.46,28.79 76.06,43.04 118.71,43.08z"/>
   <path class="fil3" d="M11610.5 9459.47c0,0 -1433.37,-127.85 -1500.82,-9.03 -131.03,231 -111.38,336.94 43.46,391.58 154.83,54.65 1557.55,-182.17 1557.55,-182.17l-100.19 -200.38z"/>
   <path class="fil3" d="M11750.41 9541.35c0,129.89 -105.3,235.2 -235.2,235.2 -129.85,0 -235.16,-105.31 -235.16,-235.2 0,-129.89 105.31,-235.2 235.16,-235.2 129.9,0 235.2,105.31 235.2,235.2z"/>
   <path class="fil3" d="M11736.72 8935.6c0,0 1383.81,395.04 1404.06,530.15 39.44,262.64 -16.94,354.47 -181.08,349.89 -164.15,-4.56 -1388.4,-728.98 -1388.4,-728.98l165.42 -151.06z"/>
   <path class="fil21" d="M11608.24 6627.62c-38.56,64.45 -93.06,117.9 -150.28,166.51 -136.6,116.06 -308.75,212.86 -486.38,188.95 5.22,-81.67 11.89,-164.93 43.18,-240.6 47.98,-116.2 151.03,-203.59 266.17,-254.14 79.48,-34.85 238.02,-94.65 325.62,-68.97 99.02,29.07 39.97,144.22 1.69,208.25z"/>
   <path class="fil12" d="M11383.24 7293.59c15.66,100.61 102.45,177.7 207.47,177.7 104.98,0 191.77,-77.09 207.47,-177.7l-414.94 0z"/>
   <path class="fil9" d="M11383.24 7293.56c3.74,24.2 11.71,46.95 22.96,67.69l286.25 0c26.99,0 48.89,-21.9 48.89,-48.93l0 -18.76 -358.1 0z"/>
   <polygon class="fil3" points="14281.41,13918.71 14284.62,14848 14243.35,14951.68 13974.43,15023.37 13973.86,13723.98 "/>
   <polygon class="fil3" points="15074.85,14041.94 15142.37,14839.04 15353.51,14800.23 15392.7,13989.37 "/>
   <path class="fil2" d="M15617.6 9844.88l-222.61 4331.01 -310.27 18.31 -177.94 -3926.67 -352.53 17.25c0,0 -163.58,2342.91 -151.23,2378.01 12.27,35.1 -106.05,1549.82 -106.05,1549.82l-353.73 -7.62 -116.94 -1568.55 15.87 -2763.97 1775.43 -27.59z"/>
   <polygon class="fil27" points="14363.68,14014.03 13894.63,14022.54 13914.84,14226.44 14336.31,14217.23 "/>
   <polygon class="fil27" points="15464.42,13991.1 14988.66,13999.36 15008.84,14203.23 15437.04,14194.27 "/>
   <path class="fil27" d="M15595.93 10266.62l-3.95 -1.38c-174.3,-61.21 -286.1,-231.45 -272.98,-415.7l298.6 -4.66 -21.67 421.74z"/>
   <path class="fil27" d="M13842.17 9872.47l367.77 -5.72 18.59 352.66c-25.79,84.46 -74.19,160.17 -139.77,219.33 -55.98,50.51 -188.8,90.66 -249.83,0.35l3.24 -566.62z"/>
   <path class="fil13" d="M16364.81 10343.17c44.95,98.49 78.29,206.9 63.08,314.08 -17.29,122.23 -96.38,228.63 -192.72,305.82 -55.42,44.38 -120.69,81.95 -191.67,83.93 -91.79,2.5 -176.63,-56.41 -229.05,-131.8 -193.82,-278.98 -282.37,-827.94 -65.02,-1120.1 72.35,-97.29 159.77,-150.74 259.78,-60.57 75.85,68.44 122.1,205.25 175.48,292 63.71,103.49 129.54,205.8 180.12,316.64z"/>
   <path class="fil6" d="M16331.37 10838.75c-92.29,-188.21 -184.54,-376.41 -276.79,-564.62 -71.86,-146.51 -154.94,-315.06 -182.35,-475.89 -83.61,-60.57 -206.13,-47.94 -289.21,13.34 -83.08,61.28 -130.07,162.13 -146.54,264.04 -16.4,101.92 -5.54,206.1 7.62,308.51 34.43,267.33 87.31,540.35 232.66,767.32 166.08,64.7 355.07,55.11 504.89,-41.48 86.29,-55.64 136.21,-169.44 149.72,-271.22z"/>
   <path class="fil10" d="M15694.99 9712.77c81,-64.03 189.41,-102.06 288.93,-74.69 43.5,12 82.87,35.56 120.79,60.01 109.36,70.48 212.48,150.71 307.73,239.39 16.47,15.35 33.62,32.6 37.22,54.86 2.68,16.76 -2.86,33.73 -8.96,49.6 -22.93,60.03 -54.58,116.8 -93.52,167.95 -19.51,25.58 -41.84,50.52 -71.23,63.57 -31.19,13.86 -67.06,12.77 -100.58,6.31 -92.71,-17.95 -173,-73.62 -250.26,-127.95 -183.48,-129.03 -494.84,-229.86 -230.12,-439.05z"/>
   <path class="fil18" d="M15523.54 10150.48c0,69.82 56.8,126.61 126.62,126.61 69.81,0 126.61,-56.79 126.61,-126.61 0,-69.81 -56.8,-126.6 -126.61,-126.6 -69.82,0 -126.62,56.79 -126.62,126.6zm-35.27 0c0,-89.28 72.63,-161.88 161.89,-161.88 89.25,0 161.89,72.6 161.89,161.88 0,89.25 -72.64,161.89 -161.89,161.89 -89.26,0 -161.89,-72.64 -161.89,-161.89z"/>
   <path class="fil2" d="M16314.19 10008.22c0,0 80.89,140.96 50.62,334.95l-27.94 23.53c0,0 -29.21,-305 -67.55,-310.47l44.87 -48.01z"/>
   <path class="fil9" d="M13874.24 7606.75c127.63,-33.34 539.92,-99.16 839.04,-107.14l-0.03 -1.23c0,0 3.14,0.14 8.82,0.46 5.68,-0.5 8.78,-0.71 8.78,-0.71l0.04 1.2c111.09,6.63 510.08,-5.15 640.96,205.57 144.29,232.19 245.75,2139.98 245.75,2139.98l-1775.43 27.59c0,0 -19.68,-2252.24 32.07,-2265.72z"/>
   <path class="fil5" d="M15395.03 7636.39c0,0 833.65,1112.76 925.62,1388.99 92.25,277.07 121.32,359.3 -82.73,461.96 -224.75,113.1 -367.35,-151.94 -421.04,-341.81 -86.08,-304.06 -299.83,-782.21 -313.3,-820.63 -19.05,-54.36 -108.55,-688.51 -108.55,-688.51z"/>
   <path class="fil4" d="M15911.95 8260.98l-413.77 534.03 -426.58 -1259.62c0,0 452.09,-7.02 552.52,149.68 82.94,129.47 244.19,343.39 287.83,575.91z"/>
   <path class="fil3" d="M14275.59 7544.98c125.1,-21.91 276.09,-41.06 437.69,-45.37l-0.03 -1.23c0,0 3.14,0.14 8.82,0.46 5.68,-0.5 8.78,-0.71 8.78,-0.71l0.04 1.2c58.56,3.49 197.13,2.19 334.33,30.76 1.05,12.77 -10.13,37.01 -29.28,68.23 -168.31,274.67 -573.73,278.17 -737.2,0.6 -12.56,-21.31 -20.75,-39.72 -23.15,-53.94z"/>
   <path class="fil3" d="M14706.83 7083.69l0 0c97.08,-1.48 176.99,75.99 178.5,173.07l5.12 328.16c1.48,97.04 -75.99,176.98 -173.07,178.5 -97.09,1.48 -176.99,-75.99 -178.51,-173.07l-5.08 -328.12c-1.52,-97.08 75.95,-177.02 173.04,-178.54z"/>
   <path class="fil5" d="M14705.17 6977.89l0 0c97.09,-1.52 177.02,75.95 178.54,173.04l3.49 225.56c-55.45,17.57 -114.23,27.73 -175.4,28.69 -61.13,0.95 -120.22,-7.38 -176.17,-23.22l-3.5 -225.56c-1.51,-97.09 75.96,-177.03 173.04,-178.51z"/>
   <path class="fil3" d="M14088.94 6705.44c5.26,337.93 283.42,607.59 621.38,602.37 337.93,-5.26 607.59,-283.46 602.33,-621.35 -5.25,-337.92 -283.42,-607.62 -621.38,-602.37 -337.89,5.26 -607.55,283.46 -602.33,621.35z"/>
   <path class="fil3" d="M15106 6724.91c1.58,101.6 85.19,182.71 186.83,181.12 101.6,-1.59 182.7,-85.23 181.11,-186.83 -1.58,-101.6 -85.23,-182.7 -186.83,-181.12 -101.6,1.59 -182.7,85.23 -181.11,186.83z"/>
   <path class="fil3" d="M13946.17 6742.91c1.59,101.63 85.23,182.7 186.83,181.15 101.6,-1.59 182.7,-85.23 181.12,-186.83 -1.59,-101.64 -85.23,-182.71 -186.83,-181.16 -101.6,1.59 -182.71,85.24 -181.12,186.84z"/>
   <path class="fil2" d="M14873.94 6754.16c0.39,24.94 21.06,44.84 46.18,44.41 25.15,-0.35 45.19,-20.88 44.77,-45.82 -0.36,-24.94 -21.03,-44.84 -46.15,-44.45 -25.15,0.39 -45.22,20.92 -44.8,45.86z"/>
   <path class="fil2" d="M14447.43 6760.79c0.42,24.94 21.1,44.84 46.22,44.42 25.15,-0.39 45.19,-20.89 44.76,-45.83 -0.35,-24.94 -21.02,-44.84 -46.14,-44.45 -25.15,0.39 -45.19,20.92 -44.84,45.86z"/>
   <path class="fil28" d="M15058.2 6628.36l25.36 -24.52c-92.5,-95.64 -211.49,-71.23 -216.53,-70.13l7.4 34.5c4.24,-0.95 105.2,-21.06 183.77,60.15z"/>
   <path class="fil28" d="M14356.06 6639.26c75.96,-83.57 177.48,-66.61 181.79,-65.83l6.35 -34.71c-5.08,-0.92 -124.81,-21.56 -214.24,76.83l26.1 23.71z"/>
   <path class="fil4" d="M13367.51 8315.38l430.18 520.94 387.27 -1272.29c0,0 -452.12,7.02 -547.65,166.79 -78.88,131.98 -233.4,350.81 -269.8,584.56z"/>
   <polygon class="fil2" points="15230.85,7514.22 15577.7,10104.66 15718.81,10087.02 15338.27,7517.53 "/>
   <path class="fil3" d="M15292.62 8297.53c1.87,120.72 101.24,217.06 221.96,215.19 120.72,-1.87 217.1,-101.25 215.2,-221.97 -1.87,-120.72 -101.25,-217.06 -221.97,-215.19 -120.72,1.87 -217.03,101.25 -215.19,221.97z"/>
   <path class="fil3" d="M15671.25 8399.97l633.06 691.38c0,0 273.48,356.73 13.97,489.72 -186.72,95.68 -343.67,-97.36 -443.4,-215.79 -17.61,-20.89 -348.76,-844.37 -348.76,-844.37l145.13 -120.94z"/>
   <path class="fil3" d="M13401.94 8346.56c0,0 -200.03,701.71 -211.49,925.23 -11.4,223.52 709.75,1206.56 709.75,1206.56 134.06,59.76 286.85,-31.53 297.71,-177.94l0.39 -5.18 -511.03 -867.26 181.11 -914.54 -466.44 -166.87z"/>
   <path class="fil2" d="M15391.78 14793.28c0,0 -52.98,-116.84 13.69,-127.56 66.64,-10.72 102.38,30.02 102.38,30.02l162.34 181.82 85.09 132.22 -128.34 -58.27 -235.16 -158.23z"/>
   <path class="fil11" d="M15132.91 14737.33c0,0 54.3,129.79 110.11,106.33 31.64,-13.3 87.06,-119.31 128.72,-104.1 41.63,15.17 202.89,133.31 263.88,164.07 61.03,30.77 -127.77,-207.89 -127.77,-207.89 0,0 158.85,162.81 213.46,190.47 54.58,27.69 514.95,140.61 527.02,283.66l-6.28 92.43c0,0 -148.8,139.49 -504.23,24.73 -355.35,-114.76 -556.22,-133.52 -620.32,-157.83 -64.1,-24.38 -35.42,-387.81 15.41,-391.87z"/>
   <path class="fil9" d="M15810.21 15238c-169.19,-25.69 -451.41,-144.89 -559.82,-155.72 -62.44,-6.24 -125.06,-27.23 -167.01,-43.96 4.66,47.59 15.39,83.72 34.12,90.88 64.1,24.31 264.97,43.07 620.32,157.83 355.43,114.76 504.23,-24.73 504.23,-24.73l6.28 -92.43c-40.11,73.91 -268.96,93.84 -438.12,68.13z"/>
   <path class="fil18" d="M15485.69 14885.71l-8.54 -2.04c-8.6,-4.59 -11.88,-15.24 -7.33,-23.85 1.65,-3.14 41.24,-76.77 97.15,-88.51 22.51,-4.91 45.05,1.02 65.05,16.86 7.66,6.03 8.96,17.11 2.93,24.76 -6.03,7.66 -17.11,9 -24.76,2.93 -11.86,-9.31 -23.64,-12.63 -35.95,-10.05 -33.16,6.98 -64.14,53.27 -73.24,70.55 -3.1,5.86 -9.1,9.21 -15.31,9.35z"/>
   <path class="fil18" d="M15540.69 14935.67l-8.57 -2.05c-8.61,-4.55 -11.89,-15.24 -7.34,-23.85 1.66,-3.14 41.24,-76.73 97.19,-88.51 22.47,-4.87 45.05,1.02 65.09,16.9 7.65,5.99 8.96,17.11 2.93,24.76 -6.04,7.62 -17.11,8.93 -24.77,2.9 -11.89,-9.35 -23.6,-12.67 -35.98,-10.02 -33.13,6.95 -64.14,53.23 -73.27,70.52 -3.14,5.89 -9.11,9.24 -15.28,9.35z"/>
   <path class="fil18" d="M15608.14 14969.5l-8.57 -2.05c-8.61,-4.59 -11.85,-15.24 -7.3,-23.85 1.62,-3.14 41.2,-76.76 97.12,-88.51 22.5,-4.73 45.08,1.09 65.12,16.9 7.62,6.03 8.92,17.18 2.89,24.8 -6.03,7.62 -17.11,8.96 -24.76,2.89 -11.86,-9.38 -23.57,-12.63 -35.95,-10.09 -32.95,6.92 -64.07,53.24 -73.27,70.56 -3.14,5.89 -9.11,9.24 -15.28,9.35z"/>
   <path class="fil18" d="M15678.7 15000.08l-8.54 -2.04c-8.64,-4.55 -11.89,-15.24 -7.34,-23.85 1.66,-3.14 41.21,-76.73 97.16,-88.51 22.5,-4.91 45.05,1.06 65.05,16.89 7.69,6.04 8.99,17.11 2.96,24.77 -6.07,7.66 -17.14,8.96 -24.8,2.89 -11.82,-9.31 -23.56,-12.63 -35.95,-10.02 -33.12,6.99 -64.13,53.27 -73.27,70.52 -3.1,5.9 -9.06,9.25 -15.27,9.35z"/>
   <path class="fil2" d="M14012 14908.54c0,0 50.9,-117.76 -15.95,-127.32 -66.81,-9.56 -101.81,31.86 -101.81,31.86l-159.17 184.57 -82.76 133.7 127.35 -60.5 232.34 -162.31z"/>
   <path class="fil11" d="M14269.81 14848.07c0,0 -51.97,130.7 -108.2,108.2 -31.85,-12.7 -89.15,-117.76 -130.49,-101.85 -41.38,15.95 -200.56,136.84 -261.02,168.7 -60.5,31.82 124.14,-210.04 124.14,-210.04 0,0 -155.96,165.48 -210.08,194.13 -54.15,28.64 -512.48,149.61 -522,292.8l7.86 92.33c0,0 151.27,136.84 504.58,15.91 353.31,-120.94 553.83,-143.23 617.5,-168.7 63.64,-25.44 28.65,-388.3 -22.29,-391.48z"/>
   <path class="fil9" d="M13601.4 15360.52c168.7,-28.65 448.8,-152.79 557,-165.53 62.37,-7.34 124.57,-29.42 166.23,-46.85 -3.85,47.63 -13.97,83.96 -32.53,91.41 -63.67,25.47 -264.19,47.76 -617.5,168.7 -353.31,120.93 -504.58,-15.95 -504.58,-15.95l-7.86 -92.29c41.38,73.21 270.54,89.15 439.24,60.51z"/>
   <path class="fil18" d="M13919.68 15002.59c-6.18,0 -12.21,-3.28 -15.42,-9.1 -9.53,-17.15 -41.45,-62.9 -74.54,-69.25 -12.42,-2.44 -24.06,1.12 -35.74,10.68 -7.55,6.18 -18.63,5.05 -24.8,-2.5 -6.17,-7.55 -5.08,-18.63 2.47,-24.8 19.76,-16.16 42.19,-22.51 64.77,-18.03 56.13,10.8 96.98,83.72 98.71,86.79 4.72,8.57 1.62,19.26 -6.88,23.98l-8.57 2.23z"/>
   <path class="fil18" d="M13865.6 15053.49c-6.21,0 -12.25,-3.28 -15.46,-9.1 -9.52,-17.11 -41.45,-62.9 -74.57,-69.25 -12.35,-2.43 -24.03,1.17 -35.7,10.69 -7.55,6.17 -18.67,5.08 -24.81,-2.47 -6.17,-7.55 -5.08,-18.66 2.47,-24.8 19.72,-16.16 42.13,-22.54 64.77,-18.03 56.13,10.8 97.02,83.68 98.71,86.79 4.69,8.53 1.62,19.26 -6.91,23.99l-8.5 2.18z"/>
   <path class="fil18" d="M13798.74 15088.49c-6.21,0 -12.24,-3.28 -15.45,-9.1 -9.49,-17.11 -41.45,-62.9 -74.54,-69.25 -12.38,-2.4 -24.06,1.2 -35.74,10.69 -7.55,6.17 -18.66,5.08 -24.8,-2.47 -6.17,-7.55 -5.04,-18.63 2.47,-24.8 19.76,-16.16 42.23,-22.48 64.77,-18.03 56.13,10.79 96.98,83.68 98.71,86.78 4.73,8.54 1.62,19.26 -6.88,23.99l-8.54 2.19z"/>
   <path class="fil18" d="M13728.72 15120.34c-6.18,0 -12.21,-3.28 -15.45,-9.1 -9.53,-17.14 -41.42,-62.9 -74.51,-69.25 -12.45,-2.47 -24.1,1.13 -35.74,10.69 -7.58,6.14 -18.66,5.01 -24.83,-2.5 -6.18,-7.55 -5.05,-18.63 2.5,-24.8 19.76,-16.16 42.16,-22.51 64.77,-18.03 56.13,10.79 96.98,83.68 98.67,86.78 4.73,8.58 1.63,19.26 -6.88,23.99l-8.53 2.22z"/>
   <path class="fil29" d="M14707.46 7061.92c-23.67,0 -48.82,-2.5 -75.24,-8.36l5.71 -25.82c169.44,37.57 285.29,-77.61 286.46,-78.78l18.91 18.52c-4.38,4.48 -94.23,94.44 -235.84,94.44z"/>
   <path class="fil2" d="M14471.24 6597.14c-88.37,0 -160.23,71.89 -160.23,160.23 0,88.33 71.86,160.23 160.23,160.23 88.37,0 160.24,-71.9 160.24,-160.23 0,-88.34 -71.87,-160.23 -160.24,-160.23zm0 355.74c-107.8,0 -195.51,-87.7 -195.51,-195.51 0,-107.81 87.71,-195.51 195.51,-195.51 107.81,0 195.51,87.7 195.51,195.51 0,107.81 -87.7,195.51 -195.51,195.51z"/>
   <path class="fil2" d="M14928.16 6597.14c-88.37,0 -160.23,71.89 -160.23,160.23 0,88.33 71.86,160.23 160.23,160.23 88.37,0 160.23,-71.9 160.23,-160.23 0,-88.34 -71.86,-160.23 -160.23,-160.23zm0 355.74c-107.77,0 -195.51,-87.7 -195.51,-195.51 0,-107.81 87.74,-195.51 195.51,-195.51 107.81,0 195.51,87.7 195.51,195.51 0,107.81 -87.7,195.51 -195.51,195.51z"/>
   <polygon class="fil2" points="14285.58,6746.75 14089.33,6593.43 14111.02,6565.6 14307.31,6718.95 "/>
   <polygon class="fil2" points="15110.72,6740.61 15307.01,6587.3 15285.28,6559.5 15089.03,6712.81 "/>
   <path class="fil28" d="M14858.7 5935.22c-91.72,-22.33 -184.5,-41.63 -278.62,-48.4 -48.26,-3.49 -102.63,-1.34 -136.39,33.3 -33.79,34.64 -18.98,109.96 29.39,110.35 -149.19,-9.21 -309.85,-15.56 -435.54,65.34 -14.29,9.2 -28.47,20.03 -35.84,35.38 -15.03,31.22 4.51,70.24 33.86,88.62 29.35,18.41 65.41,21.48 99.98,24.02 -83.93,32.91 -183.09,87.91 -178.82,177.94 3.35,70.06 87.91,122.49 152.15,94.33 -21.45,21.35 -43.67,43.93 -52.28,72.92 -8.57,28.97 1.9,66.04 30.2,76.63 23.6,8.85 49.49,-2.93 71.58,-15.03 122.16,-66.89 234.28,-152.01 331.5,-251.67 -26.7,29.7 -44.24,67.59 -49.56,107.21 -1.7,12.45 -1.94,25.96 4.72,36.61 16.9,26.96 58.49,14.29 85.41,-2.64 103.19,-64.91 192.93,-150.95 262.15,-251.25 1.62,36.9 3.28,73.8 4.9,110.74 0.5,10.72 1.77,22.93 10.52,29.17 7.72,5.47 18.27,3.92 27.51,1.8 128.8,-29.7 237.14,-137.72 270.72,-265.39 39.27,-149.23 -122.3,-199.43 -247.54,-229.98z"/>
   <path class="fil28" d="M15222.03 6197.55c12.8,23.56 14.32,51.96 26.88,75.63 19.72,37.04 61.66,55.07 95.28,80.19 33.59,25.12 61.49,72 38.88,107.31 -20.92,32.64 -68.26,31.05 -106.65,25.69 24.56,40.95 49.89,85.3 46.68,132.96 -3.25,47.62 -49.64,94.89 -94.97,79.97 -55.78,-66.71 -86.36,-153.91 -84.49,-240.84 -4.16,33.87 -43.08,55.39 -76.77,50.1 -33.69,-5.3 -61.1,-30.52 -80.15,-58.81 -126.4,-187.93 124.64,-455.79 235.31,-252.2z"/>
   <path class="fil2" d="M14766.38 6790.6l-35.28 0c0,-18.17 -14.78,-32.95 -32.91,-32.95 -18.21,0 -32.99,14.78 -32.99,32.95l-35.28 0c0,-37.64 30.62,-68.23 68.27,-68.23 37.6,0 68.19,30.59 68.19,68.23z"/>
  </g>
 </g>
</svg>
