<?xml version="1.0" encoding="UTF-8"?>
<!DOCTYPE svg PUBLIC "-//W3C//DTD SVG 1.1//EN" "http://www.w3.org/Graphics/SVG/1.1/DTD/svg11.dtd">
<!-- Creator: CorelDRAW 2018 (64 Bit) -->
<svg xmlns="http://www.w3.org/2000/svg" xml:space="preserve" width="200mm" height="200mm" version="1.1" style="shape-rendering:geometricPrecision; text-rendering:geometricPrecision; image-rendering:optimizeQuality; fill-rule:evenodd; clip-rule:evenodd"
viewBox="0 0 20000 20000"
 xmlns:xlink="http://www.w3.org/1999/xlink">
 <defs>
  <style type="text/css">
   <![CDATA[
    .fil18 {fill:black;fill-rule:nonzero}
    .fil15 {fill:#0E6A41;fill-rule:nonzero}
    .fil10 {fill:#201D40;fill-rule:nonzero}
    .fil11 {fill:#2C2858;fill-rule:nonzero}
    .fil14 {fill:#3F964F;fill-rule:nonzero}
    .fil7 {fill:#4364CC;fill-rule:nonzero}
    .fil4 {fill:#494C7F;fill-rule:nonzero}
    .fil17 {fill:#555994;fill-rule:nonzero}
    .fil8 {fill:#768FDB;fill-rule:nonzero}
    .fil2 {fill:#859CE8;fill-rule:nonzero}
    .fil6 {fill:#95A6DB;fill-rule:nonzero}
    .fil9 {fill:#95ADF5;fill-rule:nonzero}
    .fil1 {fill:#97AAE8;fill-rule:nonzero}
    .fil3 {fill:#AEBCE8;fill-rule:nonzero}
    .fil21 {fill:#BDCDFF;fill-rule:nonzero}
    .fil13 {fill:#C4204A;fill-rule:nonzero}
    .fil22 {fill:#CDD8FA;fill-rule:nonzero}
    .fil20 {fill:#CFDBFF;fill-rule:nonzero}
    .fil19 {fill:#DE623C;fill-rule:nonzero}
    .fil0 {fill:#E3EAFF;fill-rule:nonzero}
    .fil16 {fill:#E62552;fill-rule:nonzero}
    .fil12 {fill:#F37A50;fill-rule:nonzero}
    .fil5 {fill:white;fill-rule:nonzero}
   ]]>
  </style>
 </defs>
 <g id="Camada_x0020_1">
  <metadata id="CorelCorpID_0Corel-Layer"/>
  <g id="_2413074293376">
   <path class="fil0" d="M2110.81 14917.62c-1391.28,-1981.01 -597.23,-3972.79 1005.79,-5103.22 1629.54,-1149.12 -208.1,-3660.71 3035.22,-4628.11 1677.82,-500.45 3148.39,534.82 4793.96,547.88 2632.71,20.89 3267.78,-724.73 4764.01,-167.15 1000.65,320.96 1732.91,1305.98 1658.42,2382.97 -38.57,556.52 -379.89,1215.34 -26.55,1638.11 1491.42,1784.33 1337.76,3345.09 753.28,5304.48 0.12,-0.05 -15984.13,25.04 -15984.13,25.04z"/>
   <path class="fil1" d="M12730.23 11471.44c-162.14,-349.49 245.55,-790.06 51.06,-1122.64 -120.78,-206.57 -438.24,-281.84 -473.58,-518.48 -10.53,-70.52 8.34,-141.6 18.29,-212.2 38.83,-275.47 -67.74,-567.32 -275,-752.93 -206.68,-185.12 -507.48,-259.07 -776.46,-191.11l-0.06 -0.13c-0.31,0.12 -0.67,0.27 -0.98,0.39 -0.36,0.08 -0.67,0.15 -1.03,0.24l0.04 0.15c-259.8,97.62 -477.88,334.03 -542.11,603.99 -64.33,270.65 14.56,571.17 203.57,775.27 48.46,52.32 104.5,99.95 136.07,163.86 105.9,214.56 -111.86,457.46 -93.31,696.03 29.96,384.11 616.14,513.44 682.23,892.99 17.47,100.1 -5.96,202.38 -7.98,303.97 -8.82,443.58 473.07,824.32 902.53,713.13l22.04 -6.9c416.2,-153.65 594.83,-741.22 334.6,-1100.5 -59.61,-82.32 -137.15,-152.97 -179.92,-245.13z"/>
   <path class="fil2" d="M11300.19 8696.47l1686.01 5186.06c13.53,41.58 -9.23,86.26 -50.81,99.79 -41.57,13.48 -86.25,-9.28 -99.77,-50.85 -0.16,-0.42 -0.42,-1.19 -0.52,-1.66l-1572.95 -5221.44c-3.16,-10.53 2.79,-21.65 13.32,-24.82 10.42,-3.14 21.36,2.64 24.72,12.92z"/>
   <path class="fil2" d="M11443.79 11107.39c19.84,-2.35 39.81,-4.1 59.86,-5.19 20.11,-1.04 40.29,-1.19 60.5,-0.67 40.43,1.6 81.12,6.47 120.94,16.27 39.8,9.69 79,23.37 116.22,41.16 37.27,17.73 72.88,39.03 106.57,62.89 67.55,47.73 126.75,105.89 180.5,167.83 53.45,62.32 101.13,128.97 145.04,197.71 16.02,25.03 8.65,58.32 -16.37,74.29 -25.05,16.02 -58.27,8.7 -74.3,-16.34 -0.98,-1.55 -1.86,-3.1 -2.64,-4.66l-0.1 -0.2c-34.93,-69.11 -73.45,-136.34 -117.41,-199.47 -44.27,-62.84 -93.67,-122.23 -151.41,-172.42 -28.78,-25.14 -59.47,-48.05 -92.18,-67.85 -32.71,-19.91 -67.54,-36.18 -103.88,-48.98 -36.28,-13.01 -74.22,-21.52 -112.9,-26.96 -19.39,-2.49 -38.87,-4.3 -58.52,-5.29 -19.65,-0.88 -39.39,-1.14 -59.16,-0.88 -3.09,0.05 -5.69,-2.44 -5.74,-5.55 -0.06,-2.9 2.18,-5.39 4.98,-5.69z"/>
   <path class="fil2" d="M12372.03 10311.32c-16.49,10.73 -32.55,21.98 -48.21,33.74 -15.55,11.88 -30.47,24.42 -44.94,37.48 -28.57,26.45 -54.64,55.32 -76.72,86.94 -44.84,62.82 -74.28,135.08 -92.42,209.68 -18.35,74.74 -25.15,152.08 -26.07,229.37 -0.58,77.4 5.24,154.9 14.87,232.03l0 0.11c2.69,21.71 -12.7,41.52 -34.42,44.21 -21.72,2.74 -41.52,-12.7 -44.21,-34.37 -0.11,-0.93 -0.22,-1.91 -0.27,-2.85 -4.2,-80.4 -4.5,-161.31 1.87,-241.98 6.78,-80.6 19.65,-161.26 44.69,-238.81 24.71,-77.4 61.63,-151.93 113.52,-214.61 25.55,-31.51 54.94,-59.66 86.31,-84.81 15.86,-12.38 32.09,-24.14 48.88,-35.09 16.79,-10.88 33.9,-21.1 51.32,-30.73 2.69,-1.56 6.16,-0.58 7.67,2.17 1.45,2.59 0.57,5.92 -1.87,7.52z"/>
   <path class="fil1" d="M13562.51 11469.46c134.32,-275.87 -183.81,-632.72 -24.02,-894.66 99.23,-162.71 353.09,-217.92 384.81,-405.88 9.49,-55.98 -4.45,-112.85 -11.42,-169.23 -26.79,-219.94 62.48,-450.75 230.19,-595.46 167.36,-144.35 408,-198.76 621.25,-140.64l0 -0.11c0.24,0.11 0.48,0.22 0.84,0.33 0.24,0.07 0.48,0.13 0.72,0.21l0 0.11c205.44,81.6 375.56,273.1 422.66,489.03 47.21,216.48 -20.07,454.59 -173.61,614.35 -39.4,40.95 -84.7,78.01 -110.77,128.45 -87.58,169.3 82.3,365.92 63.92,555.65 -29.56,305.42 -498.35,399.66 -556.49,700.93 -15.5,79.48 1.68,161.22 1.8,242.19 0.36,353.33 -389.02,649.36 -729.37,554.45l-17.42 -5.81c-329.19,-128.55 -462.67,-599.07 -250.02,-881.33 48.66,-64.69 111.49,-119.79 146.93,-192.58z"/>
   <path class="fil2" d="M14742.53 9281.04l-1419.7 4104.63c-11.41,32.92 6.01,68.8 38.93,80.2 32.92,11.4 68.84,-6.07 80.13,-38.99 0.12,-0.36 0.36,-0.98 0.48,-1.29l1330.2 -4134.5c2.76,-8.36 -1.92,-17.29 -10.21,-19.98 -8.29,-2.64 -17.06,1.79 -19.83,9.93z"/>
   <path class="fil2" d="M14592.24 11198.72c-15.74,-2.13 -31.6,-3.83 -47.58,-4.98 -15.98,-1.14 -31.95,-1.56 -48.17,-1.45 -32.2,0.67 -64.64,3.94 -96.48,11.15 -31.83,7.15 -63.19,17.42 -93.22,31.05 -29.92,13.52 -58.63,29.96 -85.78,48.52 -54.55,37 -102.49,82.42 -146.22,130.94 -43.49,48.83 -82.41,101.18 -118.46,155.25 -13.09,19.7 -7.8,46.34 11.9,59.41 19.7,13.1 46.37,7.77 59.47,-11.93 0.84,-1.19 1.56,-2.38 2.16,-3.63l0.12 -0.15c28.83,-54.54 60.43,-107.46 96.47,-157.12 36.17,-49.35 76.41,-95.95 123.03,-135.03 23.31,-19.6 48.17,-37.38 74.49,-52.67 26.31,-15.35 54.3,-27.79 83.37,-37.49 29.2,-9.79 59.59,-16.01 90.35,-19.74 15.5,-1.67 30.99,-2.86 46.73,-3.31 15.62,-0.48 31.36,-0.38 47.1,0.14 2.52,0.11 4.56,-1.86 4.68,-4.35 0,-2.28 -1.68,-4.3 -3.96,-4.61z"/>
   <path class="fil2" d="M15024.39 9904.1c-15.86,-1.95 -31.72,-3.45 -47.7,-4.45 -15.86,-0.94 -31.96,-1.15 -48.06,-0.85 -32.07,1.02 -64.39,4.63 -95.99,12.2 -31.6,7.44 -62.59,18.01 -92.15,31.87 -29.67,13.79 -57.91,30.42 -84.7,49.09 -53.58,37.31 -100.79,82.93 -143.56,131.61 -42.65,48.98 -80.86,101.44 -116.06,155.61 -10.21,15.65 -5.65,36.6 9.97,46.75 15.62,10.22 36.52,5.76 46.74,-9.9 0.48,-0.72 0.96,-1.44 1.32,-2.17l0.12 -0.21c29.67,-54.43 62.11,-107.26 98.99,-156.75 37.01,-49.25 78.09,-95.59 125.67,-134.42 23.67,-19.4 48.9,-36.98 75.57,-52.02 26.67,-15.12 55.02,-27.29 84.34,-36.65 29.31,-9.47 59.95,-15.32 90.82,-18.72 15.5,-1.49 31.12,-2.48 46.74,-2.76 15.74,-0.25 31.48,0.03 47.21,0.73 2.41,0.13 4.57,-1.79 4.69,-4.28 0.12,-2.35 -1.68,-4.38 -3.96,-4.68z"/>
   <path class="fil2" d="M13864.91 10551.02c12.97,8.8 25.59,17.98 37.96,27.62 12.26,9.64 23.91,19.86 35.2,30.49 22.35,21.46 42.65,44.84 59.83,70.34 34.72,50.69 57.07,108.7 70.41,168.37 13.57,59.77 17.78,121.49 17.42,183.03 -0.72,61.63 -6.49,123.26 -15.26,184.54l0 0.1c-2.52,17.27 9.49,33.24 26.67,35.72 17.3,2.49 33.28,-9.49 35.8,-26.75 0,-0.72 0.12,-1.5 0.12,-2.23 4.57,-63.96 6.01,-128.4 2.16,-192.72 -4.2,-64.28 -13.21,-128.72 -32.07,-190.82 -18.5,-62 -46.74,-121.92 -87.11,-172.56 -19.94,-25.51 -42.89,-48.37 -67.51,-68.84 -12.5,-10.11 -25.23,-19.75 -38.33,-28.67 -13.21,-8.92 -26.79,-17.31 -40.49,-25.3 -2.16,-1.24 -4.92,-0.52 -6.12,1.66 -1.2,2.08 -0.6,4.67 1.32,6.02z"/>
   <path class="fil3" d="M13730.71 10881.01c-50.34,-381.99 470.35,-680.58 384.21,-1056.06 -53.58,-233.22 -333.99,-399.93 -296.99,-636.34 10.94,-70.44 50.22,-132.64 80.86,-197.03 119.3,-251.27 104.88,-561.65 -37.49,-800.69 -141.88,-238.44 -406.91,-398.89 -683.87,-414.41l0 -0.16c-0.36,0.03 -0.72,0.06 -1.1,0.09 -0.36,-0.03 -0.67,-0.06 -1.03,-0.09l0 0.16c-277.13,15.52 -555.85,175.97 -697.84,414.41 -142.28,239.04 -156.79,549.42 -37.36,800.69 30.58,64.39 69.83,126.59 80.85,197.03 36.97,236.41 -243.47,403.12 -297.02,636.34 -86.2,375.48 434.5,674.07 384.22,1056.06 -13.27,100.72 -66.15,191.33 -98.44,287.7 -141,420.66 205.07,927.99 648.17,950.21l23.07 0c443.08,-22.22 789.2,-529.55 648.16,-950.21 -32.32,-96.37 -85.18,-186.98 -98.4,-287.7z"/>
   <path class="fil1" d="M13195.24 7805.5l59.23 5452.92c0.48,43.7 -34.6,79.57 -78.34,80.03 -43.69,0.47 -79.52,-34.57 -80.04,-78.32 0,-0.47 0,-1.3 0,-1.71l59.26 -5452.92c0.15,-11 9.17,-19.83 20.15,-19.71 10.84,0.12 19.62,8.91 19.74,19.71z"/>
   <path class="fil1" d="M12611.83 10149.17c19.65,3.74 39.19,8.04 58.68,12.96 19.43,4.98 38.78,10.89 57.9,17.42 38.1,13.58 75.48,30.38 110.57,51.68 35.09,21.15 68.37,45.88 98.6,73.97 30.27,28.05 57.89,59.05 82.88,91.9 50.23,65.73 89.32,138.94 122.14,214.1 32.39,75.42 57.93,153.28 79.32,232.02 7.8,28.67 -9.14,58.21 -37.81,65.98 -28.66,7.79 -58.26,-9.11 -66.03,-37.78 -0.47,-1.77 -0.84,-3.52 -1.14,-5.24l-0.06 -0.2c-12.64,-76.41 -29.34,-152.04 -52.41,-225.49 -23.47,-73.19 -52.87,-144.63 -92.94,-209.79 -19.96,-32.55 -42.46,-63.61 -67.76,-92.27 -25.18,-28.78 -53.59,-54.69 -84.43,-77.8 -30.75,-23.23 -64.44,-42.73 -99.68,-59.46 -17.79,-8.09 -35.83,-15.72 -54.28,-22.5 -18.51,-6.74 -37.22,-12.86 -56.19,-18.51 -3.01,-0.87 -4.71,-4.05 -3.84,-7.05 0.77,-2.8 3.68,-4.46 6.48,-3.94z"/>
   <path class="fil1" d="M12611.83 8435.5c19.55,3.97 39.09,8.48 58.47,13.65 19.39,5.22 38.57,11.32 57.6,18.08 37.84,13.98 74.85,31.14 109.48,52.7 34.67,21.42 67.48,46.35 97.13,74.61 29.81,28.18 56.87,59.23 81.29,92.1 49.14,65.8 87.14,138.87 118.81,213.9 31.36,75.23 55.83,152.91 76.25,231.39 5.89,22.7 -7.69,45.87 -30.43,51.77 -22.7,5.88 -45.87,-7.74 -51.73,-30.43 -0.31,-1.04 -0.52,-2.07 -0.72,-3.1l0 -0.27c-13.69,-76.6 -31.42,-152.45 -55.58,-226.04 -24.52,-73.34 -55.05,-144.9 -96.21,-210 -20.52,-32.57 -43.54,-63.52 -69.36,-92.05 -25.75,-28.63 -54.68,-54.36 -85.94,-77.18 -31.16,-22.94 -65.2,-42.06 -100.72,-58.41 -17.89,-7.94 -36.08,-15.32 -54.58,-21.89 -18.56,-6.5 -37.39,-12.42 -56.4,-17.84 -3.01,-0.84 -4.77,-3.96 -3.94,-6.97 0.82,-2.86 3.73,-4.58 6.58,-4.02z"/>
   <path class="fil1" d="M13735.52 9666.85c-18.99,5.34 -37.61,11.26 -56.11,17.83 -18.38,6.65 -36.4,14.17 -54.06,22.3 -35.08,16.7 -68.6,36.46 -99.12,60.04 -61.63,46.57 -111.37,106.73 -150.89,172.51 -39.89,65.83 -69.45,137.64 -93.47,211.1 -23.67,73.65 -41.33,149.39 -55.15,225.85l0 0.1c-3.96,21.57 -24.51,35.82 -46.08,31.93 -21.51,-3.89 -35.82,-24.51 -31.93,-46.03 0.15,-0.92 0.41,-1.92 0.62,-2.8 20.01,-78.01 43.87,-155.24 74.03,-230.37 30.63,-74.85 67.04,-147.99 114.01,-214.55 46.73,-66.45 104.16,-126.54 172.52,-170.85 33.76,-22.44 70.28,-40.53 107.65,-55.14 18.86,-7.08 37.84,-13.47 57.18,-18.89 19.23,-5.36 38.69,-10.01 58.15,-14.03 3.01,-0.63 6.01,1.34 6.73,4.4 0.6,2.92 -1.2,5.79 -4.08,6.6z"/>
   <path class="fil4" d="M13691.06 13025.93l-1296.37 0c-101.55,0 -180.3,91.39 -168.16,195.21l174.69 1497.37c10.21,87.71 82.42,153.65 168.15,153.65l946.89 0c85.78,0 157.98,-65.94 168.2,-153.65l174.68 -1497.37c12.14,-103.82 -66.56,-195.21 -168.08,-195.21z"/>
   <path class="fil5" d="M3846.57 9451.23c-3.37,0 -6.78,-0.37 -10.22,-1.13 -66.34,-14.83 -133.63,-26.82 -200,-35.65 -25.54,-3.39 -43.49,-26.85 -40.09,-52.4 3.4,-25.54 26.85,-43.5 52.39,-40.08 69.06,9.18 139.06,21.66 208.05,37.06 25.15,5.62 40.98,30.56 35.36,55.71 -4.85,21.72 -24.12,36.49 -45.49,36.49zm395.23 123.63c-5.82,0 -11.75,-1.09 -17.48,-3.41 -62.97,-25.48 -127.41,-48.58 -191.55,-68.68 -24.59,-7.72 -38.28,-33.88 -30.58,-58.48 7.7,-24.58 33.88,-38.26 58.48,-30.56 66.53,20.84 133.36,44.81 198.65,71.23 23.88,9.67 35.4,36.86 25.74,60.74 -7.34,18.16 -24.8,29.16 -43.26,29.16zm370.53 185.17c-8.21,0 -16.5,-2.16 -24.03,-6.69 -57.87,-34.85 -117.91,-67.85 -178.42,-98.12 -23.06,-11.5 -32.4,-39.52 -20.88,-62.58 11.52,-23.04 39.54,-32.39 62.58,-20.86 62.71,31.33 124.9,65.53 184.85,101.62 22.08,13.3 29.19,41.97 15.9,64.04 -8.75,14.55 -24.18,22.59 -40,22.59zm336.58 241.56c-10.69,0 -21.44,-3.66 -30.22,-11.14 -50.87,-43.33 -104.8,-85.47 -160.28,-125.24 -20.96,-15.01 -25.76,-44.16 -10.74,-65.1 15.01,-20.94 44.15,-25.74 65.09,-10.74 57.59,41.28 113.59,85.04 166.43,130.04 19.62,16.73 21.97,46.16 5.26,65.78 -9.23,10.84 -22.33,16.4 -35.54,16.4zm-2571.34 1066.81c-11.06,0 -22.18,-3.94 -31.08,-11.87 -54.68,-48.93 -103.62,-103.01 -145.45,-160.75 -15.12,-20.89 -10.45,-50.02 10.42,-65.16 20.86,-15.14 50.03,-10.46 65.14,10.42 37.93,52.35 82.37,101.45 132.1,145.93 19.19,17.16 20.84,46.65 3.67,65.89 -9.22,10.26 -21.98,15.54 -34.8,15.54zm352.61 213.56c-5.74,0 -11.59,-1.03 -17.25,-3.31 -68.28,-27.15 -133.03,-58.99 -192.46,-94.6 -22.09,-13.28 -29.29,-41.94 -16.03,-64.02 13.23,-22.09 41.89,-29.29 64,-16.02 55.14,33.03 115.37,62.62 179,87.97 23.95,9.54 35.63,36.64 26.09,60.6 -7.28,18.3 -24.81,29.38 -43.35,29.38zm400.62 102.39c-2.14,0 -4.29,-0.16 -6.45,-0.42 -72.09,-10 -142.2,-23.48 -208.38,-40.12 -24.99,-6.27 -40.15,-31.62 -33.87,-56.61 6.28,-24.99 31.63,-40.17 56.62,-33.9 62.92,15.81 129.67,28.66 198.41,38.2 25.52,3.54 43.35,27.07 39.83,52.63 -3.23,23.31 -23.24,40.22 -46.16,40.22zm620.65 12.18c-25.14,0 -45.86,-20 -46.62,-45.3 -0.77,-25.71 19.49,-47.23 45.24,-48.01 68.75,-2.07 138.97,-2.69 209.05,-1.87 25.76,0.32 46.41,21.46 46.1,47.23 -0.3,25.76 -21.48,46.39 -47.2,46.09 -68.78,-0.83 -137.7,-0.22 -205.15,1.8 -0.47,0 -0.95,0.06 -1.42,0.06zm-285.96 9.7c-44.16,0 -88.12,-1.05 -130.67,-3.07 -25.73,-1.24 -45.6,-23.06 -44.38,-48.82 1.24,-25.71 23.11,-45.57 48.84,-44.38 65.56,3.17 134.13,3.78 203.77,1.92 25.76,-0.67 47.2,19.64 47.9,45.35 0.69,25.77 -19.63,47.23 -45.4,47.9 -26.84,0.74 -53.79,1.1 -80.06,1.1zm906.62 9.74c-1.41,0 -2.83,-0.06 -4.24,-0.16 -68.31,-6.16 -137.22,-11.1 -204.8,-14.56 -25.73,-1.36 -45.51,-23.28 -44.18,-49.04 1.34,-25.71 23.28,-45.52 49.01,-44.16 68.76,3.58 138.86,8.55 208.35,14.82 25.66,2.33 44.59,24.98 42.27,50.64 -2.19,24.26 -22.54,42.46 -46.41,42.46zm411.04 52.41c-2.51,0 -5.05,-0.21 -7.61,-0.63 -67.65,-11.09 -136.1,-21.1 -203.45,-29.7 -25.55,-3.27 -43.62,-26.6 -40.37,-52.2 3.27,-25.55 26.64,-43.59 52.19,-40.33 68.45,8.71 138.01,18.87 206.75,30.17 25.43,4.2 42.65,28.21 38.47,53.6 -3.76,22.85 -23.55,39.09 -45.98,39.09zm406.66 81.49c-3.55,0 -7.16,-0.42 -10.77,-1.3 -66.66,-15.76 -134.33,-30.54 -201.11,-43.9 -25.27,-5.03 -41.64,-29.66 -36.59,-54.9 5.07,-25.25 29.65,-41.62 54.91,-36.6 67.83,13.64 136.55,28.62 204.25,44.63 25.07,5.91 40.59,31.06 34.67,56.1 -5.07,21.5 -24.22,35.97 -45.36,35.97zm400.55 109.06c-4.57,0 -9.2,-0.67 -13.78,-2.13 -65.37,-20.16 -131.97,-39.5 -197.91,-57.48 -24.86,-6.74 -39.53,-32.41 -32.75,-57.24 6.76,-24.87 32.4,-39.54 57.26,-32.75 66.95,18.19 134.55,37.83 200.92,58.36 24.63,7.57 38.42,33.7 30.82,58.32 -6.19,20.07 -24.65,32.92 -44.56,32.92zm392.27 135.71c-5.57,0 -11.22,-0.98 -16.73,-3.11 -63.65,-24.46 -128.7,-48.21 -193.36,-70.55 -24.36,-8.44 -37.26,-34.99 -28.82,-59.36 8.42,-24.36 34.98,-37.27 59.33,-28.82 65.65,22.71 131.69,46.82 196.32,71.64 24.06,9.23 36.07,36.23 26.82,60.29 -7.12,18.56 -24.81,29.91 -43.56,29.91zm381.79 162.05c-6.58,0 -13.3,-1.41 -19.68,-4.41 -61.62,-28.73 -124.87,-56.87 -188.01,-83.62 -23.71,-10.06 -34.79,-37.47 -24.72,-61.16 10.06,-23.74 37.44,-34.83 61.16,-24.73 64.13,27.16 128.4,55.78 191,84.95 23.38,10.9 33.49,38.63 22.55,62.01 -7.88,16.95 -24.73,26.96 -42.3,26.96zm369.29 188.79c-7.68,0 -15.5,-1.93 -22.71,-5.96 -59.14,-33.08 -120.16,-65.68 -181.37,-96.95 -22.97,-11.76 -32.04,-39.86 -20.33,-62.77 11.73,-22.96 39.81,-32.03 62.78,-20.31 62.25,31.77 124.3,64.94 184.43,98.58 22.5,12.55 30.54,41.01 17.99,63.51 -8.56,15.23 -24.41,23.9 -40.79,23.9zm353.68 216.57c-8.91,0 -17.94,-2.59 -25.91,-7.93 -56.1,-37.59 -114.3,-74.86 -173.04,-110.83 -21.97,-13.43 -28.87,-42.14 -15.44,-64.13 13.42,-21.97 42.13,-28.87 64.12,-15.44 59.87,36.6 119.17,74.6 176.29,112.9 21.41,14.36 27.11,43.33 12.76,64.74 -8.97,13.42 -23.75,20.69 -38.78,20.69zm333.73 246.17c-10.37,0 -20.79,-3.42 -29.45,-10.46 -52.09,-42.41 -106.68,-84.65 -162.25,-125.55 -20.73,-15.31 -25.13,-44.54 -9.84,-65.27 15.24,-20.74 44.48,-25.14 65.2,-9.86 56.77,41.79 112.54,84.97 165.79,128.26 20,16.27 23,45.66 6.73,65.62 -9.22,11.35 -22.65,17.26 -36.18,17.26zm307.34 278.21c-12.02,0 -24.1,-4.66 -33.23,-13.89 -46.91,-47.54 -96.68,-95.13 -147.94,-141.46 -19.08,-17.27 -20.58,-46.76 -3.32,-65.89 17.27,-19.12 46.81,-20.63 65.89,-3.31 52.56,47.48 103.67,96.3 151.83,145.14 18.08,18.3 17.88,47.84 -0.47,65.93 -9.07,8.98 -20.94,13.48 -32.76,13.48zm271.42 313.15c-14.21,0 -28.19,-6.43 -37.37,-18.66 -39.86,-53.08 -83.04,-106.42 -128.3,-158.51 -16.9,-19.44 -14.83,-48.94 4.61,-65.84 19.44,-16.9 48.94,-14.83 65.84,4.61 46.7,53.8 91.28,108.86 132.49,163.71 15.45,20.58 11.31,49.85 -9.27,65.3 -8.4,6.33 -18.25,9.39 -28,9.39zm220.82 350.16c-16.95,0 -33.28,-9.23 -41.52,-25.35 -30.12,-58.73 -64.07,-117.98 -100.87,-176.09 -13.79,-21.77 -7.3,-50.59 14.47,-64.38 21.77,-13.78 50.59,-7.31 64.37,14.46 38.31,60.49 73.67,122.23 105.02,183.41 11.77,22.96 2.76,51.06 -20.22,62.82 -6.78,3.47 -14.04,5.13 -21.25,5.13z"/>
   <path class="fil0" d="M2114 10729.23c-18.17,0 -35.45,-10.74 -42.98,-28.51 -28.18,-66.61 -48.86,-136.75 -61.45,-208.49 -4.45,-25.4 12.51,-49.56 37.89,-54.01 25.38,-4.46 49.56,12.49 54.01,37.84 11.38,64.84 30.04,128.19 55.48,188.32 10.04,23.74 -1.06,51.11 -24.78,61.12 -5.93,2.54 -12.1,3.73 -18.17,3.73z"/>
   <path class="fil0" d="M2065.65 10330.19c-0.73,0 -1.45,0 -2.19,-0.05 -25.74,-1.2 -45.64,-23.02 -44.45,-48.78 3.33,-72.21 14.5,-144.32 33.22,-214.4 6.64,-24.88 32.21,-39.66 57.11,-33.03 24.89,6.65 39.68,32.25 33.03,57.13 -16.98,63.61 -27.13,129.08 -30.16,194.6 -1.15,25.04 -21.78,44.53 -46.56,44.53z"/>
   <path class="fil0" d="M2171.92 9932.69c-7.23,0 -14.57,-1.68 -21.44,-5.25 -22.87,-11.86 -31.8,-40.01 -19.94,-62.88 33.79,-65.18 74.6,-125.92 121.28,-180.59 16.74,-19.58 46.18,-21.9 65.78,-5.16 19.58,16.73 21.9,46.19 5.16,65.78 -42.06,49.24 -78.87,104.05 -109.39,162.92 -8.3,16 -24.58,25.18 -41.45,25.18z"/>
   <path class="fil0" d="M2439.68 9621.12c-14.58,0 -28.94,-6.82 -38.05,-19.62 -14.93,-20.99 -10.03,-50.13 10.97,-65.06 59.81,-42.54 124.73,-77.18 192.96,-102.92 24.11,-9.1 51.03,3.07 60.13,27.19 9.09,24.09 -3.08,51.01 -27.19,60.11 -60.73,22.91 -118.53,53.75 -171.81,91.66 -8.2,5.84 -17.65,8.64 -27.01,8.64z"/>
   <path class="fil0" d="M2819.72 9461.7c-20.74,0 -39.67,-13.93 -45.12,-34.95 -6.48,-24.94 8.49,-50.4 33.43,-56.87 68.02,-17.66 137.85,-32.08 207.53,-42.86 25.47,-3.94 49.31,13.52 53.25,38.98 3.94,25.47 -13.52,49.29 -38.99,53.24 -66.6,10.3 -133.34,24.08 -198.35,40.95 -3.92,1.02 -7.87,1.51 -11.75,1.51z"/>
   <path class="fil0" d="M3228.78 9398.29c-24.6,0 -45.18,-19.24 -46.55,-44.1 -1.4,-25.72 18.31,-47.72 44.03,-49.13 69.76,-3.83 141.05,-4.31 211.71,-1.44 25.74,1.06 45.76,22.78 44.71,48.51 -1.04,25.76 -22.77,45.8 -48.51,44.72 -67.69,-2.75 -136,-2.28 -202.79,1.37 -0.87,0.05 -1.74,0.07 -2.6,0.07z"/>
   <path class="fil6" d="M18105.75 14991.54l-16145.93 0c-31.8,0 -57.59,-25.77 -57.59,-57.59l0 0c0,-31.83 25.79,-57.59 57.59,-57.59l16145.93 0c31.84,0 57.67,25.76 57.67,57.59l0 0c0,31.82 -25.83,57.59 -57.67,57.59z"/>
   <path class="fil7" d="M12035.92 13659.11l389.29 1241.25c10.37,33.12 27.69,52.97 46.25,52.97l0 0c34.31,0 60.49,-66.24 55.09,-139.44l-84.74 -1154.78 -405.89 0z"/>
   <path class="fil7" d="M8445.47 13659.11l-389.3 1241.25c-10.37,33.12 -27.68,52.97 -46.23,52.97l0 0c-34.31,0 -60.49,-66.24 -55.11,-139.44l84.76 -1154.78 405.88 0z"/>
   <path class="fil7" d="M6593.75 13659.11l-389.32 1241.25c-10.39,33.12 -27.7,52.97 -46.23,52.97l0 0c-34.32,0 -60.51,-66.24 -55.14,-139.44l84.76 -1154.78 405.93 0z"/>
   <path class="fil8" d="M8824.71 13704.73l3494.96 0c240.9,0 436.11,-195.21 436.11,-436.1l0 -2216.87c0,-187.24 -151.83,-339.07 -339.07,-339.07l-3592 0 0 2992.04z"/>
   <path class="fil7" d="M7954.11 13704.73l3494.96 0c240.84,0 436.1,-195.21 436.1,-436.1l0 -2216.87c0,-187.24 -151.82,-339.07 -339.06,-339.07l-3592 0 0 2992.04z"/>
   <path class="fil8" d="M7193.56 11469.42l2898.57 0 0 -2125.46c0,-173.93 -140.99,-314.93 -314.91,-314.93l-2583.66 0 0 2440.39z"/>
   <path class="fil9" d="M6881.54 11418.14l4613.71 0c219.59,0 397.6,178.06 397.6,397.65l0 458.55 -5011.31 0 0 -856.2z"/>
   <polygon class="fil8" points="6881.54,13706.97 11892.85,13706.97 11892.85,12174.87 6881.54,12174.87 "/>
   <path class="fil7" d="M6185.34 11469.42l1008.22 0 0 -2440.39 -682.75 0c-179.75,0 -325.47,145.72 -325.47,325.46l0 2114.93z"/>
   <path class="fil10" d="M9569.04 6419.21c4.52,-502.49 -697.57,-644.67 -928.6,-493.59 -569.96,372.65 -408.85,584.42 -408.85,888.71 0,304.28 -262.87,326.22 -515.42,302.16 -373.28,-35.55 -603.18,435.51 -417.7,764.28 195.53,346.61 317.08,618.23 12.8,865.47 -304.28,247.24 361.31,950.91 931.89,532.5 570.51,-418.39 880.71,-809.1 690.52,-980.26 -190.2,-171.17 -21.21,-828.31 186.66,-879.83 207.82,-51.52 448.7,-999.44 448.7,-999.44z"/>
   <path class="fil11" d="M9888.21 8080.61c494.47,-128.37 716.9,-1216.12 139.02,-1599.89 -604.99,-401.74 -1437.08,-30.32 -1527.33,601.45 -90.3,631.77 439.83,991.19 439.83,991.19l948.48 7.25z"/>
   <path class="fil12" d="M12767.6 13284.85l191.33 267.64c0,0 170.91,217.77 374.6,115.54 203.75,-102.28 113.41,-429.47 113.41,-429.47l-234.03 -308.12 -445.31 354.41z"/>
   <path class="fil11" d="M13438.89 13203.11c0,0 205.8,-1.92 429.26,-78.07 124.95,-42.56 451.73,-166.5 525.14,57.13 10.93,33.33 5.88,80.08 -55.51,151.15 -90.58,104.96 -228.87,220.52 -553.13,320.98 -389.01,120.52 -420.37,189.41 -568.98,226.11 -154.05,38.1 -205.01,-176.71 -264.56,-351.3l0 0c27.16,36.86 108.12,127.58 397.43,74.64 86.51,-15.76 -160.14,-287.28 90.35,-400.64z"/>
   <path class="fil12" d="M11147.22 14204.91l0 181.48c0,0 12.34,276.61 237.53,311.86 225.18,35.3 342.02,-283.35 342.02,-283.35l-8.25 -285.88 -571.3 75.89z"/>
   <path class="fil13" d="M10284.45 9684.05c-109.79,-0.96 -334.86,401.78 -315.74,435.11 266.28,295.37 1306.4,325.69 1306.4,325.69l124.98 -128.14c0,0 -618.16,-283.55 -1115.64,-632.66z"/>
   <path class="fil13" d="M9164.77 8671.73c101.13,304.22 694.15,1410.1 803.94,1447.43l315.74 -435.11c0,0 -359.7,-910.19 -630.91,-1252.27 -192.78,-243.14 -654.87,-256.39 -488.77,239.95z"/>
   <path class="fil12" d="M9276.88 7903.55c0,0 20.85,358.67 39.1,503.1l-424.97 173.71c-135.86,-529.49 -24.41,-1101.76 -24.41,-1101.76l410.28 424.95z"/>
   <path class="fil14" d="M9520.01 11592.62l2185.39 -93.34c0,0 107.78,-545.44 26.7,-761.71 -81.07,-216.2 -2088.98,-171.63 -2088.98,-171.63l-123.11 1026.68z"/>
   <path class="fil15" d="M8877.28 10192.14c-59.2,136.86 -289.98,544.19 -267.69,874.4 22.97,340.77 263.44,637.49 670.36,631 0,0 767.03,-436 601,-1329.1 0,0 -401.53,-156.86 -1003.67,-176.3z"/>
   <path class="fil15" d="M9219.35 11775.36l1924.97 181.58c0,0 660.36,-278.68 656.57,-515.31 -3.73,-236.69 -1943.37,-884.25 -1943.37,-884.25 -1137.57,-331.75 -1516.76,1080.19 -638.17,1217.98z"/>
   <path class="fil15" d="M11800.89 11441.63l-38.56 2715.28c0,0 -480.54,202.52 -648.95,1.55 -79.47,-921.55 -457.93,-1738 -35.41,-2299.75 565.8,-752.46 722.92,-417.08 722.92,-417.08z"/>
   <path class="fil14" d="M11727.49 10731.25l1601.95 2199.92c0,0 -357.6,477.84 -607.25,421.9 -430.72,-545.02 -1302.3,-1184.11 -1307.85,-1870.03 -7.46,-918.6 313.15,-751.79 313.15,-751.79z"/>
   <path class="fil16" d="M8853.33 8258.61l452.84 6.39c322.44,210.05 561.3,506.85 605.73,703.37 58.41,258.75 71.22,1672.01 71.22,1672.01 -453.63,166.03 -960.55,18.14 -1291.01,-104.66 82.9,-687.8 -547.44,-1532.38 -226.06,-2055.8 80.2,-130.61 219.79,-156.3 387.28,-221.31z"/>
   <path class="fil11" d="M11740.86 14381.42c0,0 168.47,118.08 394.54,186.09 126.48,38.05 464.4,127.31 394.06,351.87 -10.52,33.54 -41.83,68.58 -133.07,90.71 -134.77,32.71 -314.44,46.24 -636.66,-60.59 -386.6,-128.25 -452.17,-90.46 -594.42,-147.01 -147.42,-58.58 -63.96,-262.97 -10.88,-439.63l0 0c0.67,45.77 13.79,166.65 279.97,291.9 79.46,37.42 36.8,-326.84 306.46,-273.34z"/>
   <path class="fil11" d="M9920.45 10754.83l1746.39 0 344.72 -1096.06c15.92,-50.62 -21.88,-102.15 -74.96,-102.15l-1581.65 0c-34.32,0 -64.65,22.28 -74.97,55.01l-359.53 1143.2z"/>
   <path class="fil4" d="M10052.89 10754.83l1671.44 0c44.63,0 84.08,-28.97 97.46,-71.53l322.21 -1024.53c15.91,-50.62 -21.88,-102.15 -74.91,-102.15l-1581.71 0c-34.26,0 -64.63,22.28 -74.89,55.01l-359.6 1143.2z"/>
   <path class="fil17" d="M11081.08 10177.32c-19.28,67.7 14.98,136.74 76.46,154.21 61.48,17.47 126.95,-23.27 146.17,-90.97 19.24,-67.7 -15.02,-136.74 -76.5,-154.21 -61.48,-17.47 -126.89,23.27 -146.13,90.97z"/>
   <path class="fil11" d="M9111.63 10592.48l941.26 0 0 159.62 -1065.15 0 0 -35.67c0,-68.43 55.47,-123.95 123.89,-123.95z"/>
   <path class="fil12" d="M9849.53 10672.62c-125.03,-1.09 -289.3,22.71 -285.42,-42.03 3.9,-64.8 68.28,-88.6 76.1,-166.41 6.9,-68.99 -185.11,-29.17 -371.04,128.72l-82.43 -19.28 -85.26 254.31 78.43 29.02c132.55,159.41 532.16,240.95 767.08,116.54 237.88,-125.92 27.52,-299.83 -97.46,-300.87z"/>
   <path class="fil13" d="M8270.68 8680.19c-154.01,338.67 -637.65,1058.74 -513.86,1484.32 86.62,297.96 1370.1,733.97 1370.1,733.97l121.98 -310.76 -891.91 -663.68c0,0 587.37,-919.99 641.48,-1111.96 94.61,-335.7 -485.55,-664.45 -727.79,-131.89z"/>
   <path class="fil12" d="M8902.52 7274.96c-70.7,467.13 169.35,890.82 536.25,946.36 366.86,55.54 721.63,-278.11 792.34,-745.23 70.7,-467.12 -169.41,-890.81 -536.26,-946.35 -366.91,-55.55 -721.62,278.12 -792.33,745.22z"/>
   <path class="fil18" d="M10029.05 7524.39c2.69,35.52 33.74,62.11 69.25,59.38 35.56,-2.74 62.14,-33.76 59.4,-69.29 -2.75,-35.53 -33.74,-62.13 -69.3,-59.39 -35.51,2.74 -62.11,33.76 -59.35,69.3z"/>
   <path class="fil18" d="M9512.33 7449.79c2.96,38.46 36.55,67.24 75.01,64.28 38.47,-2.96 67.29,-36.55 64.27,-75.02 -2.94,-38.46 -36.53,-67.23 -75,-64.29 -38.46,2.97 -67.23,36.56 -64.28,75.03z"/>
   <path class="fil11" d="M9462.52 7367.15c5.28,-0.41 10.52,-2.55 14.72,-6.47 60.8,-56.84 154.01,-34.92 154.93,-34.69 12.97,3.17 26.14,-4.77 29.35,-17.77 3.21,-13 -9.13,-32.74 -21.36,-38.18 -42.81,-19.11 -121.55,-29.79 -201.95,45.33 -9.81,9.16 -4.46,34.34 4.66,44.15 5.29,5.61 12.55,8.18 19.65,7.63z"/>
   <path class="fil11" d="M10196.63 7481.33c2.6,-0.21 5.24,-0.83 7.77,-1.91 12.29,-5.3 21.21,-29.11 15.92,-41.43 -41.16,-95.7 -104.92,-101.14 -140.17,-97.89 -13.32,1.23 -29.13,14.88 -29.85,28.27 -0.72,13.36 9.49,24.77 22.86,25.54 3.1,0.22 70.39,5.48 99.32,72.79 4.2,9.8 14.1,15.4 24.15,14.63z"/>
   <path class="fil19" d="M9897.28 7605.37c24.05,44.74 43.64,89.35 70.29,119.11 8.96,10.02 8.34,25.61 -1.25,35.07 -39.55,39.08 -127.16,55.55 -179.82,62.12 -7.73,0.97 -10.78,-9.63 -3.79,-12.95 59.36,-28.09 88.44,-52.91 101.81,-67.29 6.64,-7.16 9.33,-17.02 7.47,-26.6 -4.2,-21.99 -12.45,-66.72 -16.28,-102.91 -1.3,-12.49 15.61,-17.61 21.57,-6.55z"/>
   <path class="fil11" d="M8788.16 7220.2c420.82,108.41 1167.68,51.4 1354.92,-337.81 24.48,-282.01 -294.22,-448.23 -574.04,-463.18 -402.66,-21.5 -821.98,416.95 -780.88,800.99z"/>
   <path class="fil12" d="M9046.84 7250.95c64.74,111.9 42.97,245.52 -48.62,298.49 -91.55,52.95 -218.24,5.17 -282.93,-106.71 -64.75,-111.9 -42.98,-245.53 48.62,-298.5 91.54,-52.95 218.23,-5.18 282.93,106.72z"/>
   <path class="fil19" d="M8891.33 7479.91c4.25,-0.31 8.49,-1.61 12.38,-3.94 55.88,-33.58 81.28,-86.47 67.97,-141.47 -13.64,-56.32 -63.67,-99.86 -119.03,-103.51 -15.55,-1.03 -29.02,10.75 -30.07,26.32 -1.03,15.57 10.79,29.04 26.34,30.07 30.32,2.01 60.14,28.55 67.85,60.42 7.37,30.62 -7.57,58.92 -42.19,79.7 -13.37,8.04 -17.72,25.42 -9.64,38.79 5.65,9.49 16.07,14.43 26.39,13.62z"/>
   <path class="fil5" d="M9502.37 7877.62c2.71,-14.9 10.59,-27.2 24.12,-20.41 34.42,17.28 91.8,44.57 148.56,65.06 56.76,20.46 118.34,36.06 155.87,44.74 14.72,3.41 13.33,18.12 5.55,31.1 -32.34,53.74 -120.83,95.29 -207.86,63.91 -86.99,-31.4 -136.29,-128.91 -126.24,-184.4z"/>
   <path class="fil8" d="M7055.98 13704.73l2086.29 0c240.83,0 436.06,-195.21 436.06,-436.1l0 -2216.87c0,-187.24 -151.79,-339.07 -339.08,-339.07l-2183.27 0 0 2992.04z"/>
   <path class="fil7" d="M6185.34 13704.73l2086.33 0c240.83,0 436.05,-195.21 436.05,-436.1l0 -2216.87c0,-187.24 -151.78,-339.07 -339.06,-339.07l-2183.32 0 0 2992.04z"/>
   <path class="fil20" d="M12208.38 7027.69l-1165.82 0c-72.4,0 -131.09,58.7 -131.09,131.11l0 654.22c0,72.41 58.69,131.11 131.09,131.11l38 0 135.09 254.52c17.57,33.06 64.43,34.42 83.87,2.44l156.18 -256.96 752.68 0c72.43,0 131.15,-58.7 131.15,-131.11l0 -654.22c0,-72.41 -58.72,-131.11 -131.15,-131.11z"/>
   <path class="fil20" d="M11600.91 6881.29l0 0c-42.35,0 -76.67,-34.33 -76.67,-76.68l0 -233.14c0,-42.34 34.32,-76.66 76.67,-76.66l0 0c42.35,0 76.66,34.32 76.66,76.66l0 233.14c0,42.35 -34.31,76.68 -76.66,76.68z"/>
   <path class="fil20" d="M11878.76 6858.83l0 0c-29.97,-29.94 -29.97,-78.47 0,-108.43l164.83 -164.86c29.91,-29.94 78.49,-29.94 108.45,0l0 0c29.9,29.95 29.9,78.5 0,108.42l-164.89 164.87c-29.92,29.94 -78.49,29.94 -108.39,0z"/>
   <path class="fil20" d="M11323.06 6858.83l0 0c29.91,-29.94 29.91,-78.47 0,-108.43l-164.85 -164.86c-29.96,-29.94 -78.53,-29.94 -108.44,0l0 0c-29.96,29.95 -29.96,78.5 0,108.42l164.85 164.87c29.95,29.94 78.47,29.94 108.44,0z"/>
   <path class="fil5" d="M12137.68 6972.32l-1165.82 0c-72.42,0 -131.14,58.7 -131.14,131.11l0 654.23c0,72.4 58.72,131.11 131.14,131.11l37.99 0 135.09 254.51c17.53,33.06 64.44,34.43 83.88,2.44l156.13 -256.95 752.73 0c72.41,0 131.09,-58.71 131.09,-131.11l0 -654.23c0,-72.41 -58.68,-131.11 -131.09,-131.11z"/>
   <path class="fil13" d="M12037.99 7177l0.31 511.07c0,19.48 -15.7,35.24 -35.2,35.27l-888.18 0.58c-19.48,0.01 -35.24,-15.74 -35.24,-35.22l-0.36 -511.06c0,-19.49 15.76,-35.25 35.2,-35.28l888.22 -0.58c19.44,-0.02 35.2,15.73 35.25,35.22z"/>
   <path class="fil16" d="M12037.99 7177l0 28.25 -404.48 290.93c-39.3,29.43 -93.09,29.92 -132.91,1.22l-421.22 -303.64 -0.06 -16.12c0,-19.48 15.76,-35.25 35.24,-35.28l888.13 -0.58c19.49,-0.02 35.25,15.75 35.3,35.22z"/>
   <path class="fil5" d="M11548.8 6832.77l0 0c-42.35,0 -76.66,-34.32 -76.66,-76.66l0 -233.14c0,-42.35 34.31,-76.68 76.66,-76.68l0 0c42.35,0 76.68,34.33 76.68,76.68l0 233.14c0,42.34 -34.33,76.66 -76.68,76.66z"/>
   <path class="fil5" d="M11826.65 6810.32l0 0c-29.96,-29.94 -29.96,-78.49 0,-108.43l164.84 -164.86c29.97,-29.93 78.49,-29.93 108.44,0l0 0c29.97,29.94 29.97,78.49 0,108.43l-164.83 164.86c-29.96,29.94 -78.49,29.94 -108.45,0z"/>
   <path class="fil5" d="M11270.95 6810.32l0 0c29.98,-29.94 29.98,-78.49 0,-108.43l-164.83 -164.86c-29.96,-29.93 -78.49,-29.93 -108.44,0l0 0c-29.92,29.94 -29.92,78.49 0,108.43l164.89 164.86c29.91,29.94 78.48,29.94 108.38,0z"/>
   <path class="fil5" d="M17535.68 11675.26l-1202.6 0c-94.91,0 -171.81,-76.88 -171.81,-171.73l0 -513.19c0,-94.87 76.9,-171.75 171.81,-171.75l1202.6 0c94.8,0 171.68,76.88 171.68,171.75l0 513.19c0,94.85 -76.88,171.73 -171.68,171.73z"/>
   <path class="fil5" d="M16805.35 13159.04l-1561.23 0c-123.26,0 -223.1,-99.83 -223.1,-223l0 -666.21c0,-123.17 99.84,-223 223.1,-223l1561.23 0c123.02,0 222.86,99.83 222.86,223l0 666.21c0,123.17 -99.84,223 -222.86,223z"/>
   <polygon class="fil5" points="16406.6,11675.26 16406.6,12120.64 16684.01,11675.26 "/>
   <path class="fil5" d="M16744.08 13109.17l0 414.08c0,33.23 -44.82,43.91 -59.83,14.31l-217.58 -428.39 277.41 0z"/>
   <path class="fil0" d="M17456.99 11166.27l-1045.34 0c-50.7,0 -91.67,-41.05 -91.67,-91.7l0 0c0,-50.64 40.97,-91.7 91.67,-91.7l1045.34 0c50.7,0 91.79,41.06 91.79,91.7l0 0c0,50.65 -41.09,91.7 -91.79,91.7z"/>
   <path class="fil0" d="M17456.99 11462.42l-1045.34 0c-50.7,0 -91.67,-41.06 -91.67,-91.71l0 0c0,-50.64 40.97,-91.69 91.67,-91.69l1045.34 0c50.7,0 91.79,41.05 91.79,91.69l0 0c0,50.65 -41.09,91.71 -91.79,91.71z"/>
   <path class="fil0" d="M16766.54 12394.44l-1464.87 0c-56.47,0 -102.12,-45.71 -102.12,-102.01l0 0c0,-56.35 45.65,-102.02 102.12,-102.02l1464.87 0c56.35,0 102,45.67 102,102.02l0 0c0,56.3 -45.65,102.01 -102,102.01z"/>
   <path class="fil0" d="M16766.54 12718.02l-1464.87 0c-56.47,0 -102.12,-45.67 -102.12,-102.03l0 0c0,-56.34 45.65,-102.01 102.12,-102.01l1464.87 0c56.35,0 102,45.67 102,102.01l0 0c0,56.36 -45.65,102.03 -102,102.03z"/>
   <path class="fil0" d="M16781.56 13041.58l-940.22 0c-48.05,0 -86.98,-38.93 -86.98,-86.98l0 -29.97c0,-48.1 38.93,-87.02 86.98,-87.02l940.22 0c48.06,0 86.98,38.92 86.98,87.02l0 29.97c0,48.05 -38.92,86.98 -86.98,86.98z"/>
   <polygon class="fil21" points="4982.7,9824.02 4865.17,10016.46 5876.72,10706.64 "/>
   <polygon class="fil21" points="4760.88,10247.46 4822.12,10468.18 5831.73,10674.8 "/>
   <polygon class="fil5" points="5876.72,10706.64 4170.87,10125.18 4760.87,9917.68 "/>
   <polygon class="fil5" points="4982.7,9824.02 5876.72,10706.64 5353.45,9667.48 "/>
   <path class="fil5" d="M14974.89 6163.22c-2.77,0 -5.53,-0.29 -8.41,-0.9 -51.06,-11.1 -104.77,-15.87 -158.83,-14.24 -21.74,0.68 -40.01,-16.5 -40.73,-38.33 -0.6,-21.84 16.46,-40.07 38.45,-40.73 60.31,-1.83 120.62,3.53 177.93,16 21.38,4.64 34.84,25.7 30.27,47.04 -4.08,18.52 -20.42,31.16 -38.68,31.16zm-496.42 62.21c-15.38,0 -29.92,-8.97 -36.41,-23.94 -8.65,-20.05 0.6,-43.32 20.67,-51.97 55.62,-23.93 111.73,-42.84 166.87,-56.2 21.27,-5.15 42.65,7.88 47.7,29.11 5.16,21.24 -7.81,42.61 -29.08,47.76 -50.81,12.31 -102.6,29.8 -154.14,52 -5.16,2.19 -10.45,3.24 -15.61,3.24zm798.21 85.86c-7.69,0 -15.5,-2.23 -22.23,-6.91 -17.54,-11.97 -35.08,-24.22 -52.14,-36.36 -27.75,-19.79 -56.7,-37.39 -86.14,-52.3 -19.46,-9.89 -27.27,-33.69 -17.3,-53.18 9.85,-19.47 33.64,-27.24 53.1,-17.37 32.92,16.7 65.36,36.34 96.24,58.43 16.7,11.84 33.76,23.78 50.82,35.49 18.14,12.32 22.7,36.94 10.33,54.97 -7.69,11.21 -20.06,17.23 -32.68,17.23zm-1087.39 89.24c-11.78,0 -23.19,-5.12 -31,-14.93 -13.57,-17.1 -10.81,-41.98 6.25,-55.58 45.89,-36.46 93.95,-70.08 142.97,-99.91 18.62,-11.36 42.89,-5.45 54.3,13.21 11.29,18.65 5.41,42.99 -13.22,54.35 -46.13,28.13 -91.54,59.83 -134.79,94.26 -7.21,5.78 -15.98,8.6 -24.51,8.6zm1376.57 87.73c-6.37,0 -12.86,-1.54 -18.86,-4.81 -49.5,-26.87 -99.36,-55.75 -148.62,-85.84 -18.5,-11.4 -24.39,-35.75 -12.97,-54.37 11.41,-18.64 35.68,-24.5 54.3,-13.1 47.94,29.39 96.84,57.59 145.13,83.81 19.1,10.43 26.19,34.44 15.86,53.64 -7.21,13.19 -20.78,20.67 -34.84,20.67zm306.96 143.91c-4.81,0 -9.61,-0.86 -14.42,-2.7 -51.54,-20.09 -104.64,-43.03 -158.1,-68.23 -19.83,-9.31 -28.24,-32.88 -18.99,-52.64 9.37,-19.75 32.92,-28.22 52.62,-18.92 51.91,24.42 103.45,46.66 153.19,66.09 20.42,7.94 30.51,30.86 22.58,51.22 -6.13,15.63 -21.14,25.18 -36.88,25.18zm-1918.77 11.44c-7.93,0 -15.86,-2.39 -22.82,-7.34 -17.79,-12.68 -21.99,-37.39 -9.37,-55.17 32.19,-44.98 70.16,-90.13 113.17,-134.21 15.25,-15.64 40.36,-15.94 55.98,-0.69 15.62,15.25 15.86,40.3 0.72,55.93 -40.24,41.19 -75.69,83.2 -105.36,124.88 -7.69,10.82 -19.82,16.6 -32.32,16.6zm2734.76 8.77c-12.73,0 -25.11,-6.05 -32.8,-17.31 -12.25,-18.07 -7.56,-42.67 10.46,-54.95 37.36,-25.4 70.88,-57.23 99.47,-94.61 13.22,-17.36 37.97,-20.68 55.39,-7.4 17.3,13.26 20.66,38.08 7.45,55.44 -33.76,44.14 -73.41,81.82 -117.86,112 -6.73,4.62 -14.42,6.83 -22.11,6.83zm-490.65 73.37c-2.16,0 -4.33,-0.18 -6.61,-0.56 -54.06,-9.15 -111.01,-22.48 -169.52,-39.63 -21.02,-6.13 -33.04,-28.11 -26.79,-49.07 6.13,-20.97 27.99,-32.98 49.02,-26.84 55.5,16.28 109.57,28.92 160.51,37.54 21.5,3.65 36.04,24.08 32.43,45.62 -3.36,19.29 -20.06,32.94 -39.04,32.94zm168.68 15.06c-21.87,0 -39.53,-17.7 -39.53,-39.53 -0.12,-21.84 17.66,-39.56 39.41,-39.59 56.94,-0.04 110.04,-6.33 158.1,-18.68 21.15,-5.45 42.65,7.29 48.18,28.44 5.4,21.16 -7.33,42.72 -28.48,48.16 -54.42,14.01 -114.13,21.14 -177.68,21.2l0 0z"/>
   <polygon class="fil21" points="13915.97,6483.58 13973.03,6663.52 13012.79,7022.34 "/>
   <polygon class="fil21" points="14011.6,6872.13 13917.77,7039.31 13055.71,7005.48 "/>
   <polygon class="fil5" points="13012.79,7022.34 14515.71,6890.64 14077.56,6604.05 "/>
   <polygon class="fil5" points="13915.97,6483.58 13012.79,7022.34 13645.77,6282.22 "/>
   <path class="fil22" d="M5880.48 6272.83l-428.6 606.16c-16.33,23.12 -48.23,28.58 -71.3,12.27l-1053.48 -744.87c-23.07,-16.31 -28.54,-48.23 -12.21,-71.33l428.59 -606.17c16.34,-23.1 48.25,-28.57 71.32,-12.26l1053.48 744.88c23.06,16.31 28.55,48.21 12.2,71.32z"/>
   <path class="fil5" d="M5880.48 6272.83l-23.69 33.51 -723.74 5.36c-71.27,1.91 -135.49,-42.69 -158.59,-110.12l-244.5 -713.54 13.52 -19.15c16.33,-23.08 48.28,-28.56 71.36,-12.23l1053.4 744.82c23.09,16.32 28.57,48.27 12.24,71.35z"/>
   <path class="fil5" d="M4092.25 7477.23c-112.79,0 -204.55,91.78 -204.55,204.56 0,112.79 91.76,204.56 204.55,204.56 112.79,0 204.55,-91.77 204.55,-204.56 0,-112.78 -91.76,-204.56 -204.55,-204.56zm0 486.87c-155.67,0 -282.31,-126.65 -282.31,-282.31 0,-155.66 126.64,-282.3 282.31,-282.3 155.67,0 282.31,126.64 282.31,282.3 0,155.66 -126.64,282.31 -282.31,282.31z"/>
   <path class="fil0" d="M17572.69 8962.7c-112.69,0 -204.48,91.75 -204.48,204.55 0,112.78 91.79,204.54 204.48,204.54 112.81,0 204.6,-91.76 204.6,-204.54 0,-112.8 -91.79,-204.55 -204.6,-204.55zm0 486.84c-155.7,0 -282.33,-126.62 -282.33,-282.29 0,-155.68 126.63,-282.32 282.33,-282.32 155.7,0 282.33,126.64 282.33,282.32 0,155.67 -126.63,282.29 -282.33,282.29z"/>
   <path class="fil5" d="M3528.3 13741.48c-112.78,0 -204.54,91.75 -204.54,204.55 0,112.8 91.76,204.56 204.54,204.56 112.8,0 204.56,-91.76 204.56,-204.56 0,-112.8 -91.76,-204.55 -204.56,-204.55zm0 486.86c-155.67,0 -282.3,-126.64 -282.3,-282.31 0,-155.66 126.63,-282.3 282.3,-282.3 155.66,0 282.32,126.64 282.32,282.3 0,155.67 -126.66,282.31 -282.32,282.31z"/>
   <path class="fil5" d="M16370.08 8693.63c0,116.65 -94.55,211.2 -211.09,211.2 -116.65,0 -211.32,-94.55 -211.32,-211.2 0,-116.63 94.67,-211.19 211.32,-211.19 116.54,0 211.09,94.56 211.09,211.19z"/>
   <path class="fil5" d="M3094.01 13272.67c0,116.63 -94.56,211.18 -211.19,211.18 -116.65,0 -211.21,-94.55 -211.21,-211.18 0,-116.63 94.56,-211.18 211.21,-211.18 116.63,0 211.19,94.55 211.19,211.18z"/>
   <path class="fil0" d="M18146.24 8593.99c0,89.01 -72.21,161.17 -161.23,161.17 -89.02,0 -161.11,-72.16 -161.11,-161.17 0,-89.02 72.09,-161.17 161.11,-161.17 89.02,0 161.23,72.15 161.23,161.17z"/>
   <path class="fil0" d="M3563.98 8071.54c0,89.02 -72.17,161.18 -161.18,161.18 -89.01,0 -161.18,-72.16 -161.18,-161.18 0,-89.01 72.17,-161.17 161.18,-161.17 89.01,0 161.18,72.16 161.18,161.17z"/>
   <path class="fil16" d="M7870.6 12203.06l-174.12 0c-27.74,0 -50.23,-22.54 -50.23,-50.28 0,-27.78 22.49,-50.28 50.23,-50.28l123.84 0 0 -326.94 -123.84 0c-27.74,0 -50.23,-22.5 -50.23,-50.28 0,-27.74 22.49,-50.23 50.23,-50.23l174.12 0c27.73,0 50.23,22.49 50.23,50.23l0 427.5c0,27.74 -22.5,50.28 -50.23,50.28z"/>
   <path class="fil16" d="M7647.39 12400.98l-555.23 0c-27.11,0 -49.09,-22.04 -49.09,-49.14l0 -825.62c0,-27.1 21.98,-49.14 49.09,-49.14l555.23 0c27.1,0 49.09,22.04 49.09,49.14l0 825.62c0,27.1 -21.99,49.14 -49.09,49.14z"/>
   <path class="fil5" d="M7305.94 11389.17c0,0 -211.18,-85.69 -145.83,-240.79 65.37,-155.04 303,-134.62 167.85,-359.23 162.98,89.84 187.44,289.98 60.86,338.96 -126.59,49 -133.06,173.09 -82.88,261.06z"/>
   <path class="fil5" d="M7504.38 11389.17c0,0 -150.13,-60.96 -103.69,-171.22 46.45,-110.26 215.44,-95.74 119.33,-255.45 115.91,63.85 133.33,206.21 43.28,241.04 -89.98,34.84 -94.59,123.06 -58.92,185.63z"/>
   <path class="fil9" d="M7953.75 12697.95l-3386.84 0c-84.07,0 -152.23,-68.16 -152.23,-152.24l0 0c0,-84.08 68.16,-152.25 152.23,-152.25l3386.84 0c84.07,0 152.19,68.17 152.19,152.25l0 0c0,84.08 -68.12,152.24 -152.19,152.24z"/>
   <polygon class="fil9" points="4772.51,14900.31 4968.71,14900.31 4968.71,12644.04 4772.51,12644.04 "/>
   <polygon class="fil9" points="7551.95,14900.31 7748.11,14900.31 7748.11,12644.04 7551.95,12644.04 "/>
   <path class="fil16" d="M6701.36 12162.37l0 157.9 42.97 0c20.89,0 37.8,16.9 37.8,37.78l0 6.33c0,20.9 -16.91,37.79 -37.8,37.79l-1832.23 0c-24.2,0 -43.97,-19.65 -43.97,-43.96l0 -227.46c0,-24.26 19.69,-43.96 43.97,-43.96l1832.23 0c20.89,0 37.8,16.9 37.8,37.79l0 0c0,20.85 -16.91,37.79 -37.8,37.79l-42.97 0z"/>
   <path class="fil5" d="M6706.8 12320.22l-1602.52 0c-17.72,0 -32.09,-14.37 -32.09,-32.09l0 -93.67c0,-17.74 14.37,-32.09 32.09,-32.09l1602.52 0 0 157.85z"/>
   <path class="fil14" d="M4706.13 11821.43l0 174.7 -43 0c-20.86,0 -37.77,18.76 -37.77,41.83l0 7.05c0,23.07 16.91,41.78 37.77,41.78l1832.28 0c24.16,0 43.96,-21.77 43.96,-48.67l0 -251.67c0,-26.86 -19.7,-48.62 -43.96,-48.62l-1832.28 0c-20.86,0 -37.77,18.7 -37.77,41.78l0 0c0,23.12 16.91,41.82 37.77,41.82l43 0z"/>
   <path class="fil5" d="M4700.69 11996.13l1600.85 0c18.66,0 33.77,-15.14 33.77,-33.75l0 -107.2c0,-18.66 -15.11,-33.75 -33.77,-33.75l-1600.85 0 0 174.7z"/>
   <path class="fil16" d="M6512.31 11575.94l-1670.79 0c-36.91,0 -66.83,-29.91 -66.83,-66.87l0 -149.6c0,-36.91 29.92,-66.87 66.83,-66.87l1670.79 0c36.91,0 66.82,29.96 66.82,66.87l0 149.6c0,36.96 -29.91,66.87 -66.82,66.87z"/>
   <path class="fil8" d="M6646.51 11737.83l-1703.39 0c-27.91,0 -50.52,-22.6 -50.52,-50.55l0 -60.85c0,-27.9 22.61,-50.49 50.52,-50.49l1703.39 0c27.9,0 50.54,22.59 50.54,50.49l0 60.85c0,27.95 -22.64,50.55 -50.54,50.55z"/>
  </g>
 </g>
</svg>
