<svg xmlns="http://www.w3.org/2000/svg" xmlns:xlink="http://www.w3.org/1999/xlink" width="92" height="48" viewBox="0 0 92 48">
  <defs>
    <filter id="Background" x="-45" y="-35" width="182" height="138" filterUnits="userSpaceOnUse">
      <feOffset dy="10" input="SourceAlpha"/>
      <feGaussianBlur stdDeviation="15" result="blur"/>
      <feFlood flood-opacity="0.161"/>
      <feComposite operator="in" in2="blur"/>
      <feComposite in="SourceGraphic"/>
    </filter>
    <clipPath id="clip-path">
      <g transform="matrix(1, 0, 0, 1, 0, 0)" filter="url(#Background)">
        <rect id="Background-2" data-name="Background" width="92" height="48" transform="translate(0 0.35)" fill="#fff"/>
      </g>
    </clipPath>
  </defs>
  <g id="Grupo_1" data-name="Grupo 1" transform="translate(0 -0.354)">
    <g id="Grupo_de_máscara_3" data-name="Grupo de máscara 3" transform="translate(0 0)" clip-path="url(#clip-path)">
      <g id="sign-out-option" transform="translate(16.495 -0.7)">
        <g id="Grupo_2" data-name="Grupo 2" transform="translate(0 0)">
          <path id="Caminho_12" data-name="Caminho 12" d="M24.368,143a.988.988,0,0,1-.077-.514c.026-.138-.063-.253-.266-.342s-.3-.159-.3-.209-.146-.089-.438-.114l-.438-.038H10.965a5.869,5.869,0,0,1-4.3-1.787A5.851,5.851,0,0,1,4.873,135.7V108.939a5.85,5.85,0,0,1,1.789-4.295,5.872,5.872,0,0,1,4.3-1.787H23.149a1.151,1.151,0,0,0,.78-.247,1.262,1.262,0,0,0,.38-.741,6.385,6.385,0,0,0,.115-.893,9.44,9.44,0,0,0-.019-1.007q-.038-.608-.038-.76a1.233,1.233,0,0,0-1.218-1.216H10.965a10.572,10.572,0,0,0-7.748,3.212A10.535,10.535,0,0,0,0,108.94V135.7a10.533,10.533,0,0,0,3.217,7.734,10.569,10.569,0,0,0,7.748,3.213H23.149a1.157,1.157,0,0,0,.78-.247,1.262,1.262,0,0,0,.38-.742,6.4,6.4,0,0,0,.115-.893,9.432,9.432,0,0,0-.019-1.007Q24.367,143.148,24.368,143Z" transform="translate(0 -97.993)" fill="#fff"/>
          <path id="Caminho_13" data-name="Caminho 13" d="M305.656,141.156l-20.712-20.678a2.437,2.437,0,0,0-4.15,1.711v10.947H263.736a2.468,2.468,0,0,0-2.437,2.433v14.6a2.469,2.469,0,0,0,2.437,2.433h17.057v10.947a2.424,2.424,0,0,0,4.15,1.71l20.712-20.677a2.384,2.384,0,0,0,0-3.422Z" transform="translate(-246.678 -118.54)" fill="#fff"/>
        </g>
      </g>
    </g>
  </g>
</svg>
