<?xml version="1.0" encoding="UTF-8"?>
<!DOCTYPE svg PUBLIC "-//W3C//DTD SVG 1.1//EN" "http://www.w3.org/Graphics/SVG/1.1/DTD/svg11.dtd">
<!-- Creator: CorelDRAW 2018 (64 Bit) -->
<svg xmlns="http://www.w3.org/2000/svg" xml:space="preserve" width="200mm" height="200mm" version="1.1" style="shape-rendering:geometricPrecision; text-rendering:geometricPrecision; image-rendering:optimizeQuality; fill-rule:evenodd; clip-rule:evenodd"
viewBox="0 0 20000 20000"
 xmlns:xlink="http://www.w3.org/1999/xlink">
 <defs>
  <style type="text/css">
   <![CDATA[
    .fil1 {fill:#4CB0E3;fill-rule:nonzero}
    .fil0 {fill:#6B6B6B;fill-rule:nonzero}
   ]]>
  </style>
 </defs>
 <g id="Camada_x0020_1">
  <metadata id="CorelCorpID_0Corel-Layer"/>
  <g id="_1163797429216">
   <g id="_2412951594304">
    <path class="fil0" d="M4482.49 6409.1c84.84,-236.64 248.67,-372.58 497.95,-432.6 512.56,175.43 806.75,679.23 806.75,679.23 0,0 -199.9,-2075.72 272.03,-3725.8 193.57,-364.69 437.43,-722.15 752.74,-1037.55 783.99,-784.52 1854.26,-1182.94 3180.78,-1182.94 1326.52,0 2396.79,398.09 3180.78,1182.77 308.71,309.22 548.88,658.09 741.23,1015.4 480.19,1653.67 278.39,3748.12 278.39,3748.12 0,0 294.45,-505.59 808.55,-680.18 251.07,59.43 415.96,196.13 501.31,433.55 287.23,797.56 -359.89,2313.76 -793.02,2768.71 -472.28,495.02 -724.03,553.86 -773.08,560.82l-272.03 -71.45 -46.36 304.91c-0.61,4.05 -63.04,411.06 -243.53,974.2 -612.52,1910.42 -2357.72,2927.55 -3382.24,2927.55 -1026.31,0 -2772.98,-1016.96 -3381.88,-2926.79 -189.6,-596.28 -243.27,-968 -243.52,-971.86l-43.99 -309.3 -274.76 72.74c-49.64,-7.3 -301.08,-66.05 -773.36,-560.82 -433.19,-454.95 -1080.23,-1971.15 -792.74,-2768.71zm1373.5 3854.19c37.25,182.64 106.89,475.62 226.24,852.17 652.53,2046.52 2537.96,3313.09 3910.51,3313.09 1369.87,0 3254.38,-1266.57 3910.24,-3312.5 116.61,-363.92 187.2,-665.31 225.68,-852.76 228.4,-65.44 551.87,-250.85 982.68,-702.86 527.41,-553.07 1293.55,-2284.39 913.66,-3339.45 -104.25,-289.56 -286.3,-505.01 -531.37,-646.18 -52.97,-925.15 -327.17,-3388.75 -1735.51,-3866.27 -61.14,-69.3 -122.36,-138.43 -189.25,-205.07 -891.85,-895.18 -2095.13,-1348.66 -3576.13,-1348.66 -1481,0 -2684.28,453.82 -3576.38,1348.66 -65.43,66.03 -126.32,134.21 -186.59,202.31 -1416.76,471.69 -1690.96,2949.72 -1743.67,3873.06 -242.07,141.17 -422.31,355.33 -525.62,642.15 -379.8,1055.06 386.26,2786.38 913.41,3339.79 430.73,451.08 753.68,636.72 982.1,702.52z"/>
    <path class="fil1" d="M6631.47 6938.32c0,-186.84 152.33,-339 338.92,-339l1786.44 0c187.18,0 339.25,152.16 339.25,339l0 633.46c0,186.77 -152.07,339.19 -339.25,339.19l-1786.44 0c-186.59,0 -338.92,-152.42 -338.92,-339.19l0 -633.46zm4273.12 0c0,-186.84 152.08,-339 338.94,-339l1786.67 0c186.61,0 339.02,152.16 339.02,339l0 633.46c0,186.77 -152.41,339.19 -339.02,339.19l-1786.67 0c-186.86,0 -338.94,-152.42 -338.94,-339.19l0 -633.46zm-3934.2 1379.49l1786.44 0c411.32,0 745.76,-334.63 745.76,-746.03l0 -633.46c0,-19.4 -3.94,-37.27 -5.4,-56.32l1006.31 0c-1.56,19.05 -5.76,36.92 -5.76,56.32l0 633.46c0,411.4 334.72,746.03 745.79,746.03l1786.67 0c411.4,0 746.48,-334.63 746.48,-746.03l0 -633.46c0,-411.31 -335.08,-746.12 -746.48,-746.12l-1786.67 0c-292.91,0 -544.68,171.74 -666.7,418.7l-1152.97 0c-122.12,-246.96 -374.14,-418.7 -667.03,-418.7l-1786.44 0c-411.32,0 -746.37,334.81 -746.37,746.12l0 633.46c0,411.4 335.05,746.03 746.37,746.03z"/>
    <path class="fil1" d="M9481.73 15055.23c-297.78,0 -542.26,254.79 -542.26,566.22l0 1128.68c0,311.79 244.48,566.56 542.26,566.56l1013 0c298.31,0 542.53,-254.77 542.53,-566.56l0 -1128.68c0,-311.43 -244.22,-566.22 -542.53,-566.22l-1013 0z"/>
    <polygon class="fil0" points="8681.69,18873.67 6123.45,14731.75 4910.56,15215.89 7972.23,19624.61 9145.72,19624.61 "/>
    <path class="fil0" d="M2362.55 16033.8c-220.53,118.76 -1611.26,3035.66 -1611.26,3035.66l0 762.96 6858.65 0 -3217.44 -4632.92c-941.47,378.07 -1919.01,774.62 -2029.95,834.3z"/>
    <polygon class="fil0" points="13853.61,14731.75 10830.65,19624.61 12004.25,19624.61 15065.56,15215.89 "/>
    <path class="fil0" d="M17638.06 16033.8c-111.81,-60.27 -1101.71,-461.46 -2049.01,-841.86l-3222.87 4640.48 6882.53 0 0 -762.96c0,0 -1390.4,-2916.9 -1610.65,-3035.66z"/>
    <path class="fil1" d="M10839.43 17642.91c-89.32,53.24 -193.55,86.64 -307.17,86.64l-1086.94 0c-122.97,0 -235.36,-39.07 -329.55,-101.16l-257.79 739.44 912.71 1477.37 434.76 0 896.04 -1450.16 -262.06 -752.13z"/>
   </g>
  </g>
 </g>
</svg>
